<?xml version="1.0" encoding="UTF-8"?>
<svg version="1.1" xmlns="http://www.w3.org/2000/svg" width="164" height="201">
<path d="M0 0 C7.53058928 0.43159504 12.75783955 1.34732327 18.75 6.25 C24.3337478 13.07458065 23.57038019 21.57850421 23 30 C22.50220483 33.43038443 21.82197392 36.82323508 21.14453125 40.22192383 C19.46166458 49.07199943 19.26945568 58.01504684 19 67 C9.52757767 67.93062395 0.03956685 68.16013048 -9.47381592 68.23217773 C-11.47435376 68.24977442 -13.47474535 68.28201896 -15.47509766 68.31445312 C-22.06090416 68.33810965 -27.21854072 68.30866646 -33 65 C-33.38978703 60.5050091 -32.16131237 57.81582887 -30.0625 53.875 C-27.77911332 49.54576813 -27.77911332 49.54576813 -26 45 C-25.34 45 -24.68 45 -24 45 C-23.7525 44.401875 -23.505 43.80375 -23.25 43.1875 C-21.73208246 40.53114431 -20.63507037 39.58273953 -18 38 C-14.58477163 37.2387107 -11.21400216 36.68513281 -7.75585938 36.18359375 C-3.62119756 35.52093665 -3.62119756 35.52093665 -0.00390625 33.53125 C1.1827612 32.0264022 1.1827612 32.0264022 1 30 C0.525625 30.639375 0.05125 31.27875 -0.4375 31.9375 C-4.02807565 34.82747552 -7.44243063 35.25087538 -12 35 C-14.5625 33.5625 -14.5625 33.5625 -16 32 C-13.69675266 20.79784248 -5.62435503 9.84887059 0 0 Z M-5 16 C-5.66 16.66 -6.32 17.32 -7 18 C-5.02 18 -3.04 18 -1 18 C-2.32 17.34 -3.64 16.68 -5 16 Z M-8 18 C-8.33 19.98 -8.66 21.96 -9 24 C-7.68 24.33 -6.36 24.66 -5 25 C-5.61277612 22.03824877 -6.25372522 20.61941217 -8 18 Z M0 19 C0.66 20.32 1.32 21.64 2 23 C1.67 21.68 1.34 20.36 1 19 C0.67 19 0.34 19 0 19 Z M2 24 C2 25.65 2 27.3 2 29 C2.33 29 2.66 29 3 29 C3 27.35 3 25.7 3 24 C2.67 24 2.34 24 2 24 Z " fill="#94794F" transform="translate(38,77)"/>
<path d="M0 0 C5.11905515 5.26961559 6.89354426 10.71566395 7.375 17.9375 C7.26893397 24.17182573 5.62130746 29.39193105 1.625 34.1875 C-2.50697565 37.49308052 -6.31721017 37.58732439 -11.4296875 37.53515625 C-13.875 37.1875 -13.875 37.1875 -16.875 35 C-19.77609701 30.92033233 -20.927894 28.69497908 -20.75 23.625 C-19.78719129 19.84253722 -19.06300491 18.4013923 -15.875 16.1875 C-13.125 15.9375 -13.125 15.9375 -10.875 16.1875 C-10.38 18.1675 -10.38 18.1675 -9.875 20.1875 C-10.535 20.1875 -11.195 20.1875 -11.875 20.1875 C-11.875 21.8375 -11.875 23.4875 -11.875 25.1875 C-10.885 24.8575 -9.895 24.5275 -8.875 24.1875 C-7.94108997 22.37093185 -7.94108997 22.37093185 -7.875 20.1875 C-8.73290183 17.96978936 -8.73290183 17.96978936 -9.875 16.1875 C-14.64669504 15.85527366 -14.64669504 15.85527366 -19.0859375 17.33203125 C-21.12546903 19.09747906 -21.12546903 19.09747906 -21.3359375 21.9296875 C-21.30757812 22.96351562 -21.27921875 23.99734375 -21.25 25.0625 C-21.23710938 26.09117187 -21.22421875 27.11984375 -21.2109375 28.1796875 C-20.86980182 31.23404181 -20.28780728 33.46349144 -18.875 36.1875 C-16.35127099 37.54828035 -16.35127099 37.54828035 -13.875 38.1875 C-13.875 39.1775 -13.875 40.1675 -13.875 41.1875 C-18.21661825 41.23702706 -22.55808575 41.27327954 -26.89990234 41.29736328 C-28.37616847 41.30740591 -29.85241479 41.32104265 -31.32861328 41.33837891 C-33.45350034 41.36270421 -35.57812385 41.3740004 -37.703125 41.3828125 C-38.9809082 41.39328613 -40.25869141 41.40375977 -41.57519531 41.41455078 C-44.64969299 41.20300278 -46.31238352 40.81876908 -48.875 39.1875 C-49.19883593 25.37050044 -48.60668842 13.93459402 -38.625 3.4375 C-26.92769116 -7.73950021 -13.49727463 -8.5091514 0 0 Z " fill="#C99E67" transform="translate(115.875,102.8125)"/>
<path d="M0 0 C4.7905513 -0.24032866 6.41386916 0.79135662 10 4 C10.99 4.66 11.98 5.32 13 6 C13.55902006 9.36892882 13.85576837 12.65665391 14.08398438 16.05859375 C14.39720317 19.49450904 14.76766184 21.68394083 16.83203125 24.4921875 C19.90361778 26.6284621 22.35551677 26.28034486 26 26 C26 25.67 26 25.34 26 25 C24.906875 24.87625 23.81375 24.7525 22.6875 24.625 C19 24 19 24 16 22 C13.58314132 17.77049731 13.87427224 14.66372928 15 10 C16.51466895 6.18585953 18.30496591 3.50107109 21.6875 1.0625 C26.54730464 -0.49630526 31.10640843 -1.05530987 35.9921875 0.7265625 C40.57968686 3.14828963 43.92129713 6.04529213 45.71875 10.96875 C48.22138652 20.32070751 46.63541231 30.3299222 42.0625 38.8125 C40 42 40 42 37 44 C35.68 44 34.36 44 33 44 C32.505 40.04 32.505 40.04 32 36 C32.04125 37.0725 32.0825 38.145 32.125 39.25 C32.00405141 42.87845778 31.89789055 44.07622267 30 47 C27.72265625 48.95703125 27.72265625 48.95703125 25.0625 50.8125 C24.18722656 51.43769531 23.31195313 52.06289062 22.41015625 52.70703125 C21.61480469 53.13371094 20.81945312 53.56039062 20 54 C17 53 17 53 15.6484375 50.41796875 C15.22820312 49.35191406 14.80796875 48.28585938 14.375 47.1875 C13.94960937 46.12917969 13.52421875 45.07085937 13.0859375 43.98046875 C12.23658485 41.64933181 11.5270721 39.41867533 11 37 C10.34 37 9.68 37 9 37 C8.505 36.278125 8.01 35.55625 7.5 34.8125 C2.83183005 29.5608088 -3.99536734 26.55299732 -11 26 C-9.28137532 20.31531835 -6.8358325 15.01576119 -4.375 9.625 C-3.95476563 8.69816406 -3.53453125 7.77132812 -3.1015625 6.81640625 C-2.07035118 4.54305401 -1.03643137 2.27097594 0 0 Z M24 12 C23.67 13.32 23.34 14.64 23 16 C23.99 16.33 24.98 16.66 26 17 C25.67 15.68 25.34 14.36 25 13 C25.99 12.67 26.98 12.34 28 12 C26.68 12 25.36 12 24 12 Z M31 17 C32 20 32 20 32 20 Z M30 20 C29.34 21.32 28.68 22.64 28 24 C28.66 24 29.32 24 30 24 C30.33 22.68 30.66 21.36 31 20 C30.67 20 30.34 20 30 20 Z M21 31 C21 31.33 21 31.66 21 32 C23.31 32 25.62 32 28 32 C28 31.67 28 31.34 28 31 C25.69 31 23.38 31 21 31 Z M18 35 C19 39 19 39 19 39 Z M23 36 C23 36.66 23 37.32 23 38 C23.66 38 24.32 38 25 38 C25 37.34 25 36.68 25 36 C24.34 36 23.68 36 23 36 Z " fill="#7C2A12" transform="translate(52,47)"/>
<path d="M0 0 C7.49645041 8.99574049 12.92245788 19.47282783 17.9375 30 C18.31479248 30.78842285 18.69208496 31.5768457 19.08081055 32.38916016 C22.36502313 39.43349309 24.73557646 45.11101607 23 53 C22.67 53.33 22.34 53.66 22 54 C15.08420275 53.62227522 9.35586995 51.95206697 2.9375 49.4375 C2.07189453 49.10814453 1.20628906 48.77878906 0.31445312 48.43945312 C-1.79415283 47.63561991 -3.89859349 46.8224288 -6 46 C-5.46339782 43.31698908 -4.6451098 41.24505278 -3.46728516 38.73950195 C-1.79978024 34.92772733 -1.54317554 31.29068318 -1.5234375 27.16796875 C-1.50785797 26.45014725 -1.49227844 25.73232574 -1.47622681 24.99275208 C-1.42911409 22.7243442 -1.40106359 20.45623863 -1.375 18.1875 C-1.33846022 15.90111946 -1.29787982 13.61490868 -1.25234985 11.32868958 C-1.22519823 9.91203323 -1.20381444 8.49525201 -1.18881226 7.07841492 C-1.1106798 2.2213596 -1.1106798 2.2213596 0 0 Z " fill="#C99E67" transform="translate(105,45)"/>
<path d="M0 0 C9.49112286 1.36714235 14.26566594 6.64962635 20 14 C34 33.65088757 34 33.65088757 34 40 C21.79 40 9.58 40 -3 40 C-2.0120382 35.06019098 -0.75214465 33.04221245 2 29 C5.07228731 19.52711414 2.28662718 9.32345012 0 0 Z " fill="#7D2B13" transform="translate(124,104)"/>
<path d="M0 0 C3 2 3 2 3.58203125 4.05859375 C3.65808594 4.84363281 3.73414062 5.62867188 3.8125 6.4375 C3.90144531 7.21996094 3.99039063 8.00242187 4.08203125 8.80859375 C4 11 4 11 2 14 C2.433125 13.505 2.86625 13.01 3.3125 12.5 C5 11 5 11 8 11 C14.17685922 20.80620024 14.17685922 20.80620024 13.5 25.375 C13.005 26.24125 12.51 27.1075 12 28 C11.62875 28.94875 11.2575 29.8975 10.875 30.875 C10.58625 31.57625 10.2975 32.2775 10 33 C5.82651422 32.47831428 2.67500649 30.90394077 -0.99609375 28.98828125 C-3.58352999 27.71221621 -6.24040164 26.82787951 -9 26 C-9 25.34 -9 24.68 -9 24 C-9.66 24 -10.32 24 -11 24 C-14.39491412 19.79030649 -15 15.26405783 -15 10 C-14.00620591 5.93447871 -12.12659427 3.73576999 -9 1 C-5.98131566 -0.50934217 -3.32702771 -0.17510672 0 0 Z M-3 8 C-2 10 -2 10 -2 10 Z M-6 10 C-5 12 -5 12 -5 12 Z " fill="#C99E67" transform="translate(89,17)"/>
<path d="M0 0 C2.25 0 2.25 0 5 1 C8.19757256 5.28045656 9.65311953 9.64441981 9 15 C8 16 8 16 4.75 16.25 C0.24949979 17.15010004 -1.1412222 18.48778727 -4 22 C-6.53114639 26.2685535 -6.46136831 30.15128026 -6 35 C-5.3530635 36.6744239 -4.69040574 38.34302621 -4 40 C-3.875 42.4375 -3.875 42.4375 -5 45 C-8.44294646 48.52472666 -11.35189149 50.96947947 -16.375 51.0625 C-19 50 -19 50 -21 47 C-22.95300341 33.65447669 -9.61905028 15.99352163 -3 5 C-2.43796875 4.06285156 -1.8759375 3.12570312 -1.296875 2.16015625 C-0.86890625 1.44730469 -0.4409375 0.73445312 0 0 Z " fill="#C99E67" transform="translate(79,0)"/>
<path d="M0 0 C1.794375 0.33 3.58875 0.66 5.4375 1 C10.72817299 1.89119284 15.64573058 2.17847565 21 2 C22.75163456 5.77222089 23.22490027 8.666639 23.125 12.8125 C23.10695313 13.78832031 23.08890625 14.76414063 23.0703125 15.76953125 C23.04710938 16.50558594 23.02390625 17.24164063 23 18 C21.68 18 20.36 18 19 18 C18.34 14.04 17.68 10.08 17 6 C16.34 6 15.68 6 15 6 C14.01 9.96 13.02 13.92 12 18 C11.01 17.67 10.02 17.34 9 17 C8.67 13.04 8.34 9.08 8 5 C7.01 5 6.02 5 5 5 C4.814375 6.8253125 4.814375 6.8253125 4.625 8.6875 C4.21108694 12.06479059 3.45426549 14.89756695 2 18 C1.34 18 0.68 18 0 18 C0 12.06 0 6.12 0 0 Z " fill="#7D2B13" transform="translate(24,159)"/>
<path d="M0 0 C1.32 0 2.64 0 4 0 C5.66666667 0 7.33333333 0 9 0 C9 0.66 9 1.32 9 2 C9.99 1.34 10.98 0.68 12 0 C15 -0.4375 15 -0.4375 18 0 C20 2.1875 20 2.1875 21 5 C20.33719617 7.43028072 19.7989028 9.2010972 18 11 C15.66708189 11.04401732 13.33299825 11.03954234 11 11 C9.68 11 8.36 11 7 11 C5.33333333 11 3.66666667 11 2 11 C2 10.34 2 9.68 2 9 C2.99 9 3.98 9 5 9 C4.34 8.01 3.68 7.02 3 6 C0.69 6.66 -1.62 7.32 -4 8 C-2.35 8 -0.7 8 1 8 C1 8.99 1 9.98 1 11 C-2.375 11.125 -2.375 11.125 -6 11 C-8 9 -8 9 -8.3125 5.5 C-8.209375 4.345 -8.10625 3.19 -8 2 C-4.69840966 -0.20106023 -3.79850432 -0.18529289 0 0 Z M-5 3 C-1 4 -1 4 -1 4 Z M5 4 C6.32 5.32 7.64 6.64 9 8 C9 6.02 9 4.04 9 2 C7.53774984 1.90754997 7.53774984 1.90754997 5 4 Z M13 3 C12.34 4.32 11.68 5.64 11 7 C11.66 7.66 12.32 8.32 13 9 C15.10820797 8.6814823 15.10820797 8.6814823 17 8 C17.33 6.68 17.66 5.36 18 4 C16.35 3.67 14.7 3.34 13 3 Z " fill="#C69D6F" transform="translate(123,190)"/>
<path d="M0 0 C3.96 0 7.92 0 12 0 C14.11126943 4.22253885 14.2171997 6.14001523 14.125 10.75 C14.10695313 11.92046875 14.08890625 13.0909375 14.0703125 14.296875 C14.03550781 15.63492188 14.03550781 15.63492188 14 17 C13.01 17 12.02 17 11 17 C11 16.34 11 15.68 11 15 C9.88625 15.20625 8.7725 15.4125 7.625 15.625 C6.42875 15.74875 5.2325 15.8725 4 16 C3.34 15.34 2.68 14.68 2 14 C2.1875 11.5 2.1875 11.5 3 9 C6 7 6 7 10 7 C9.67 6.34 9.34 5.68 9 5 C6.87423218 4.53348793 6.87423218 4.53348793 4.4375 4.375 C3.61121094 4.30023438 2.78492187 4.22546875 1.93359375 4.1484375 C1.29550781 4.09945312 0.65742187 4.05046875 0 4 C0 2.68 0 1.36 0 0 Z M7 9 C6.67 10.32 6.34 11.64 6 13 C7.32 13 8.64 13 10 13 C9.67 11.68 9.34 10.36 9 9 C8.34 9 7.68 9 7 9 Z " fill="#7D2B13" transform="translate(108,161)"/>
<path d="M0 0 C1.79093191 -0.08086147 3.58289628 -0.13912702 5.375 -0.1875 C6.87160156 -0.23970703 6.87160156 -0.23970703 8.3984375 -0.29296875 C9.25695312 -0.19628906 10.11546875 -0.09960938 11 0 C13.45391569 3.68087353 13.22802759 6.44355588 13.125 10.6875 C13.11597656 11.38939453 13.10695312 12.09128906 13.09765625 12.81445312 C13.07413704 14.54311525 13.03826713 16.27160145 13 18 C12.01 17.67 11.02 17.34 10 17 C10 16.34 10 15.68 10 15 C8.88625 15.20625 7.7725 15.4125 6.625 15.625 C5.42875 15.74875 4.2325 15.8725 3 16 C2.34 15.34 1.68 14.68 1 14 C1.1875 11.5 1.1875 11.5 2 9 C5.22791555 6.8480563 6.28400809 6.79913557 10 7 C9.67 6.34 9.34 5.68 9 5 C6.87423218 4.53348793 6.87423218 4.53348793 4.4375 4.375 C3.61121094 4.30023438 2.78492188 4.22546875 1.93359375 4.1484375 C1.29550781 4.09945312 0.65742188 4.05046875 0 4 C0 2.68 0 1.36 0 0 Z M7 9 C6.01 10.485 6.01 10.485 5 12 C6.32 12.33 7.64 12.66 9 13 C9 11.68 9 10.36 9 9 C8.34 9 7.68 9 7 9 Z " fill="#7D2B13" transform="translate(150,161)"/>
<path d="M0 0 C1.62490954 -0.02698189 3.24994633 -0.04638757 4.875 -0.0625 C5.77992188 -0.07410156 6.68484375 -0.08570313 7.6171875 -0.09765625 C10 0 10 0 12 1 C12.44921875 3.80078125 12.44921875 3.80078125 12.6875 7.3125 C12.77386719 8.46363281 12.86023437 9.61476562 12.94921875 10.80078125 C12.99210699 13.50274031 12.83397927 15.46043907 12 18 C11.34 18 10.68 18 10 18 C10 17.01 10 16.02 10 15 C8.329375 15.2784375 8.329375 15.2784375 6.625 15.5625 C3 16 3 16 1 15 C0.75 12.6875 0.75 12.6875 1 10 C2.75 8.1875 2.75 8.1875 5 7 C6.32 7 7.64 7 9 7 C8.67 6.34 8.34 5.68 8 5 C6.10466658 4.53476937 6.10466658 4.53476937 3.9375 4.375 C2.638125 4.25125 1.33875 4.1275 0 4 C0 2.68 0 1.36 0 0 Z M6 9 C5.67 10.32 5.34 11.64 5 13 C6.32 12.67 7.64 12.34 9 12 C8.67 11.01 8.34 10.02 8 9 C7.34 9 6.68 9 6 9 Z " fill="#7D2B13" transform="translate(0,161)"/>
<path d="M0 0 C0.99 0 1.98 0 3 0 C3 1.98 3 3.96 3 6 C5.31 6 7.62 6 10 6 C10 4.02 10 2.04 10 0 C11.32 0 12.64 0 14 0 C14.33 4.95 14.66 9.9 15 15 C13.35 15 11.7 15 10 15 C10 12.69 10 10.38 10 8 C7.69 8 5.38 8 3 8 C3.33 10.31 3.66 12.62 4 15 C2.68 15 1.36 15 0 15 C0 10.05 0 5.1 0 0 Z " fill="#C69D6F" transform="translate(0,186)"/>
<path d="M0 0 C4.95 0.99 4.95 0.99 10 2 C10 5.33333333 10 8.66666667 10 12 C10.93283296 14.20067421 10.93283296 14.20067421 12 16 C8.12867972 15.42647107 5.91827204 13.51295648 3 11 C3.33 12.65 3.66 14.3 4 16 C2.68 15.67 1.36 15.34 0 15 C0 10.05 0 5.1 0 0 Z M3 3 C3 4.98 3 6.96 3 9 C4.32 8.34 5.64 7.68 7 7 C7 6.01 7 5.02 7 4 C5.68 3.67 4.36 3.34 3 3 Z " fill="#C69D6F" transform="translate(103,185)"/>
<path d="M0 0 C0.99 0 1.98 0 3 0 C3 1.65 3 3.3 3 5 C4.32 5 5.64 5 7 5 C7 5.99 7 6.98 7 8 C5.68 8 4.36 8 3 8 C3.11362262 9.4800841 3.24122908 10.95910074 3.375 12.4375 C3.44460937 13.26121094 3.51421875 14.08492187 3.5859375 14.93359375 C3.72257812 15.61550781 3.85921875 16.29742187 4 17 C4.66 17.33 5.32 17.66 6 18 C5.67 18.99 5.34 19.98 5 21 C3.35 20.67 1.7 20.34 0 20 C-0.96070434 17.11788698 -1.10581883 15.30149956 -1.0625 12.3125 C-1.05347656 11.50425781 -1.04445313 10.69601563 -1.03515625 9.86328125 C-1.01775391 8.94095703 -1.01775391 8.94095703 -1 8 C-1.99 8 -2.98 8 -4 8 C-4 7.01 -4 6.02 -4 5 C-3.01 5 -2.02 5 -1 5 C-0.67 3.35 -0.34 1.7 0 0 Z " fill="#7D2B13" transform="translate(94,156)"/>
<path d="M0 0 C0.99 0 1.98 0 3 0 C3.33 5.28 3.66 10.56 4 16 C0.7 16 -2.6 16 -6 16 C-8.15717092 10.72691552 -8.15717092 10.72691552 -7.5 7.6875 C-5.31134979 5.22526851 -3.18647425 5.27708472 0 5 C0 3.35 0 1.7 0 0 Z M-4 8 C-4.33 9.65 -4.66 11.3 -5 13 C-3.05396726 13.59070014 -3.05396726 13.59070014 -1 14 C0.29633621 12.93354885 0.29633621 12.93354885 0.0625 10.4375 C0.041875 9.633125 0.02125 8.82875 0 8 C-1.32 8 -2.64 8 -4 8 Z " fill="#C69D6F" transform="translate(92,185)"/>
<path d="M0 0 C0.99 0.33 1.98 0.66 3 1 C3 1.66 3 2.32 3 3 C3.66 3.33 4.32 3.66 5 4 C5 4.66 5 5.32 5 6 C4.01 6 3.02 6 2 6 C2 7.98 2 9.96 2 12 C2.66 12 3.32 12 4 12 C4 12.66 4 13.32 4 14 C2.68 14 1.36 14 0 14 C0 11.36 0 8.72 0 6 C-1.32 6.33 -2.64 6.66 -4 7 C-4.33 9.31 -4.66 11.62 -5 14 C-5.99 14 -6.98 14 -8 14 C-8.33 10.37 -8.66 6.74 -9 3 C-2.25 2.875 -2.25 2.875 0 4 C0 2.68 0 1.36 0 0 Z " fill="#C69D6F" transform="translate(153,187)"/>
<path d="M0 0 C1.9375 1.0625 1.9375 1.0625 3 3 C2.55555556 9.44444444 2.55555556 9.44444444 1 11 C-4.8410596 11.37086093 -4.8410596 11.37086093 -7 11 C-9.15502531 7.76746204 -9.46856135 6.74849077 -9 3 C-6.73529086 -0.64869805 -4.03159541 -0.50394943 0 0 Z M-5 3 C-6.01111093 6.04913228 -6.01111093 6.04913228 -5 9 C-3.35 8.67 -1.7 8.34 0 8 C0 6.35 0 4.7 0 3 C-1.65 3 -3.3 3 -5 3 Z " fill="#C69D6F" transform="translate(24,190)"/>
<path d="M0 0 C6.0546875 -0.1953125 6.0546875 -0.1953125 8 0 C10.39763185 2.39763185 10.34280586 3.33273498 10.625 6.625 C10.69976562 7.44226563 10.77453125 8.25953125 10.8515625 9.1015625 C10.92503906 10.04128906 10.92503906 10.04128906 11 11 C9.68 11 8.36 11 7 11 C7 8.36 7 5.72 7 3 C6.01 3.33 5.02 3.66 4 4 C4 6.31 4 8.62 4 11 C2.68 11 1.36 11 0 11 C0 7.37 0 3.74 0 0 Z " fill="#C69D6F" transform="translate(73,190)"/>
<path d="M0 0 C2.5 0.25 2.5 0.25 4.5 2.25 C4.5 3.57 4.5 4.89 4.5 6.25 C2.52 6.58 0.54 6.91 -1.5 7.25 C-1.5 7.91 -1.5 8.57 -1.5 9.25 C0.15 8.92 1.8 8.59 3.5 8.25 C3.5 9.24 3.5 10.23 3.5 11.25 C0.125 11.4375 0.125 11.4375 -3.5 11.25 C-5.5 8.25 -5.5 8.25 -5.25 5.1875 C-4.33610921 1.60809442 -3.77234361 0.37723436 0 0 Z M-0.5 2.25 C-0.83 2.91 -1.16 3.57 -1.5 4.25 C-0.51 3.92 0.48 3.59 1.5 3.25 C0.84 2.92 0.18 2.59 -0.5 2.25 Z " fill="#C69D6F" transform="translate(39.5,189.75)"/>
<path d="M0 0 C0.99 0.33 1.98 0.66 3 1 C3 1.66 3 2.32 3 3 C5.31 3 7.62 3 10 3 C10 3.66 10 4.32 10 5 C8.824375 5.5259375 8.824375 5.5259375 7.625 6.0625 C4.0926308 8.66972489 3.98943471 10.9506829 3.26171875 15.13671875 C3.17535156 15.75160156 3.08898437 16.36648437 3 17 C2.01 17 1.02 17 0 17 C0 11.39 0 5.78 0 0 Z " fill="#7D2B13" transform="translate(133,159)"/>
<path d="M0 0 C2.375 -0.1875 2.375 -0.1875 5 0 C7.67927341 4.01891012 7.15601248 6.24161923 7 11 C0.84765625 11.09765625 0.84765625 11.09765625 -1 11 C-2 10 -2 10 -2.1875 7.75 C-1.98598041 4.79437936 -1.22497335 2.67962921 0 0 Z M1 6 C1 6.99 1 7.98 1 9 C1.99 8.67 2.98 8.34 4 8 C3.67 7.34 3.34 6.68 3 6 C2.34 6 1.68 6 1 6 Z " fill="#C69D6F" transform="translate(65,190)"/>
<path d="M0 0 C0.66 0 1.32 0 2 0 C2.33 0.66 2.66 1.32 3 2 C5.32156597 2.40729228 7.6568787 2.74438677 10 3 C10 3.66 10 4.32 10 5 C8.02 5.66 6.04 6.32 4 7 C3.67 10.3 3.34 13.6 3 17 C2.01 17 1.02 17 0 17 C0 11.39 0 5.78 0 0 Z " fill="#7D2B13" transform="translate(58,159)"/>
<path d="M0 0 C1.99954746 -0.04254356 4.00041636 -0.04080783 6 0 C6.33 0.33 6.66 0.66 7 1 C6.90913549 3.53541298 6.7629055 6.03554784 6.5625 8.5625 C6.51029297 9.27341797 6.45808594 9.98433594 6.40429688 10.71679688 C6.27425893 12.47821999 6.13773103 14.23916173 6 16 C5.34 16 4.68 16 4 16 C3.87882812 15.14535156 3.75765625 14.29070312 3.6328125 13.41015625 C3.46523437 12.30542969 3.29765625 11.20070312 3.125 10.0625 C2.96257812 8.96035156 2.80015625 7.85820312 2.6328125 6.72265625 C2.42398438 5.82417969 2.21515625 4.92570313 2 4 C1.34 3.67 0.68 3.34 0 3 C0 2.01 0 1.02 0 0 Z " fill="#7D2B13" transform="translate(74,161)"/>
<path d="M0 0 C1.32 0 2.64 0 4 0 C4 0.99 4 1.98 4 3 C3.01 3.495 3.01 3.495 2 4 C2.66 4.66 3.32 5.32 4 6 C3.625 8.625 3.625 8.625 3 11 C1.35 11 -0.3 11 -2 11 C-2 10.34 -2 9.68 -2 9 C-1.34 8.67 -0.68 8.34 0 8 C0 7.34 0 6.68 0 6 C-0.66 6 -1.32 6 -2 6 C-1.125 1.125 -1.125 1.125 0 0 Z " fill="#C69D6F" transform="translate(52,190)"/>
<path d="M0 0 C0.99 0 1.98 0 3 0 C3.33 5.28 3.66 10.56 4 16 C2.68 16 1.36 16 0 16 C0 10.72 0 5.44 0 0 Z " fill="#C69D6F" transform="translate(45,185)"/>
<path d="M0 0 C0.99 0.33 1.98 0.66 3 1 C3 1.99 3 2.98 3 4 C3.66 4 4.32 4 5 4 C5 4.66 5 5.32 5 6 C4.01 6 3.02 6 2 6 C2 7.98 2 9.96 2 12 C2.66 12 3.32 12 4 12 C4 12.66 4 13.32 4 14 C2.68 14 1.36 14 0 14 C0 11.36 0 8.72 0 6 C-0.66 6 -1.32 6 -2 6 C-2 5.34 -2 4.68 -2 4 C-1.34 4 -0.68 4 0 4 C0 2.68 0 1.36 0 0 Z " fill="#C69D6F" transform="translate(29,187)"/>
<path d="M0 0 C0 0.99 0 1.98 0 3 C-0.66 3 -1.32 3 -2 3 C-1.01 4.485 -1.01 4.485 0 6 C0.125 8.6875 0.125 8.6875 0 11 C-1.65 11 -3.3 11 -5 11 C-5 10.34 -5 9.68 -5 9 C-4.34 8.67 -3.68 8.34 -3 8 C-3.99 6.35 -4.98 4.7 -6 3 C-3.375 0 -3.375 0 0 0 Z " fill="#C69D6F" transform="translate(164,190)"/>
<path d="M0 0 C0.99 0 1.98 0 3 0 C3 2.31 3 4.62 3 7 C1.68 6.67 0.36 6.34 -1 6 C-1.042721 4.33388095 -1.04063832 2.66617115 -1 1 C-0.67 0.67 -0.34 0.34 0 0 Z " fill="#7D2B13" transform="translate(77,151)"/>
</svg>
