<?xml version="1.0" encoding="UTF-8"?>
<svg version="1.1" xmlns="http://www.w3.org/2000/svg" width="442" height="513">
<path d="M0 0 C1.26070313 0.32242676 1.26070313 0.32242676 2.546875 0.65136719 C30.87393835 8.10058314 58.1202563 21.09734523 82 38 C83.55074219 39.04220703 83.55074219 39.04220703 85.1328125 40.10546875 C90.32513382 43.61281672 90.32513382 43.61281672 92 45 C92 45.66 92 46.32 92 47 C92.6909375 47.21011719 93.381875 47.42023437 94.09375 47.63671875 C97.89932619 49.42186134 100.48833017 51.92311375 103.5 54.8125 C104.05558594 55.33392578 104.61117188 55.85535156 105.18359375 56.39257812 C108.51776368 59.53454297 111.77529889 62.74608964 115 66 C115.33 66.33 115.66 66.66 116 67 C116.10492819 68.92622785 116.13846166 70.85635305 116.14539433 72.78542423 C116.15231896 74.05043768 116.1592436 75.31545113 116.16637808 76.61879832 C116.16905309 78.04095507 116.17161893 79.46311204 116.17408752 80.88526917 C116.18024529 82.38185974 116.18682092 83.87844865 116.19378132 85.3750357 C116.21163548 89.50749705 116.22304518 93.63995531 116.233338 97.77244151 C116.24295505 101.31216833 116.25627118 104.85187733 116.26960696 108.39159179 C116.31726503 121.07483669 116.34984941 133.75810682 116.37890625 146.44140625 C116.38121383 147.4419818 116.38352141 148.44255735 116.38589892 149.47345337 C116.43133262 169.33120516 116.4698727 189.18896787 116.49662876 209.04675388 C116.50261817 213.41569088 116.50870378 217.78462773 116.51489258 222.15356445 C116.51719205 223.78244414 116.51719205 223.78244414 116.51953798 225.44423049 C116.54524967 243.03430179 116.60212613 260.62413355 116.67135788 278.21408165 C116.74180942 296.26270618 116.78206021 314.31120684 116.79337829 332.3599667 C116.80054262 342.49796503 116.82134062 352.63554742 116.87640572 362.77340889 C116.92327233 371.4081599 116.9431366 380.04243247 116.92752422 388.67730618 C116.92040928 393.08365421 116.92629662 397.48897752 116.96710205 401.89516449 C117.00417783 405.93064686 117.00421055 409.96438576 116.97497844 413.9999169 C116.97090762 415.45832502 116.98033301 416.91684756 117.00474424 418.37505705 C117.11653199 425.47993603 117.17805363 430.62695091 112.06445217 435.92338467 C108.47588635 439 108.47588635 439 106 439 C105.67 439.99 105.34 440.98 105 442 C103.5480957 443.37524414 103.5480957 443.37524414 101.67578125 444.78515625 C100.98419922 445.31069092 100.29261719 445.83622559 99.58007812 446.37768555 C98.83177734 446.93367432 98.08347656 447.48966309 97.3125 448.0625 C96.15717773 448.93032104 96.15717773 448.93032104 94.97851562 449.81567383 C92.65843594 451.5521414 90.32993653 453.27679133 88 455 C87.37270996 455.46954102 86.74541992 455.93908203 86.09912109 456.42285156 C67.78175108 470.11856087 47.49835082 481.17944316 26 489 C25.13906738 489.31469238 24.27813477 489.62938477 23.39111328 489.95361328 C8.4915509 495.32878816 -6.37645655 499.37871942 -22 502 C-22.96921387 502.16371094 -23.93842773 502.32742188 -24.93701172 502.49609375 C-79.48709403 511.28365901 -136.38350349 500.92470067 -185 475 C-185.97332275 474.48832275 -185.97332275 474.48832275 -186.96630859 473.96630859 C-204.950363 464.45836355 -224.99164731 451.89710014 -239 437 C-239 436.34 -239 435.68 -239 435 C-239.82757813 434.6596875 -239.82757813 434.6596875 -240.671875 434.3125 C-243.68692417 432.61274074 -245.81230369 430.45195184 -248.25 428 C-249.14203125 427.113125 -250.0340625 426.22625 -250.953125 425.3125 C-253 423 -253 423 -253 421 C-253.86625 420.6596875 -253.86625 420.6596875 -254.75 420.3125 C-257.59739809 418.65151778 -259.12067193 416.68475439 -261 414 C-261 413.34 -261 412.68 -261 412 C-261.66 412 -262.32 412 -263 412 C-264.88860316 409.76997184 -266.64261296 407.53563973 -268.375 405.1875 C-268.90665771 404.46973389 -269.43831543 403.75196777 -269.98608398 403.01245117 C-309.44173157 349.00125333 -329.06457102 281.48486202 -319.62890625 214.6953125 C-318.66828828 209.05093609 -317.44229125 203.5389401 -316 198 C-315.73574219 196.84242188 -315.47148437 195.68484375 -315.19921875 194.4921875 C-309.24513212 168.94469684 -299.63375499 144.92002172 -287 122 C-286.3915625 120.88625 -285.783125 119.7725 -285.15625 118.625 C-280.66945011 110.66727944 -275.40312476 103.34897371 -270 96 C-269.23236328 94.92492187 -269.23236328 94.92492187 -268.44921875 93.828125 C-260.83892569 83.32187971 -252.0005107 73.81411654 -242.875 64.625 C-242.12822998 63.86904541 -241.38145996 63.11309082 -240.61206055 62.33422852 C-239.91250244 61.63869873 -239.21294434 60.94316895 -238.4921875 60.2265625 C-237.86683105 59.60346191 -237.24147461 58.98036133 -236.59716797 58.33837891 C-235 57 -235 57 -233 57 C-233 56.34 -233 55.68 -233 55 C-228.52941176 51 -228.52941176 51 -226 51 C-226 50.34 -226 49.68 -226 49 C-224.63330078 47.75415039 -224.63330078 47.75415039 -222.6953125 46.34765625 C-221.97609619 45.82405518 -221.25687988 45.3004541 -220.51586914 44.76098633 C-219.72688232 44.20048584 -218.93789551 43.63998535 -218.125 43.0625 C-216.90574829 42.19177856 -216.90574829 42.19177856 -215.66186523 41.3034668 C-152.73000866 -3.11580893 -75.06519385 -19.2340801 0 0 Z " fill="#1B171C" transform="translate(326,8)"/>
<path d="M0 0 C0.71929687 0.41636719 1.43859375 0.83273438 2.1796875 1.26171875 C20.94138934 12.91266882 34.02049987 31.23551033 39.2734375 52.58984375 C44.21657405 75.79069434 39.72167782 98.1588511 27 118 C18.49508416 130.27908095 7.479207 139.65058407 -6 146 C-6.99 146 -7.98 146 -9 146 C-9 146.66 -9 147.32 -9 148 C-11.18573562 148.65177969 -13.3736823 149.29614674 -15.5625 149.9375 C-16.78066406 150.29714844 -17.99882812 150.65679687 -19.25390625 151.02734375 C-35.40190328 155.22009793 -53.25875096 154.27741297 -69 149 C-70.40958984 148.53207031 -70.40958984 148.53207031 -71.84765625 148.0546875 C-81.87845426 144.36484217 -91.23757547 138.33301381 -99 131 C-99 130.34 -99 129.68 -99 129 C-99.99 128.67 -100.98 128.34 -102 128 C-110.04231364 118.76670679 -116.02410161 108.57550209 -120 97 C-120.27593994 96.19788086 -120.55187988 95.39576172 -120.83618164 94.56933594 C-123.19413219 86.94843977 -123.50192368 79.69073768 -123.4375 71.75 C-123.43137695 70.46963867 -123.42525391 69.18927734 -123.41894531 67.87011719 C-123.26655198 58.65383725 -122.39303259 50.64107953 -119 42 C-118.69964844 41.175 -118.39929688 40.35 -118.08984375 39.5 C-109.90285313 19.08568573 -91.92515935 2.33616265 -72 -6.375 C-49.24173301 -14.483594 -20.76114547 -12.31530314 0 0 Z " fill="#C6200A" transform="translate(306,184)"/>
<path d="M0 0 C0.33 0 0.66 0 1 0 C1.17479432 4.92535818 1.30087066 9.84886083 1.38452148 14.77661133 C1.41943575 16.44783015 1.46698763 18.11883977 1.52807617 19.78930664 C1.9227669 30.87049748 1.38989643 38.13113567 -6 47 C-6.8028188 48.1376437 -7.59732937 49.28125317 -8.37890625 50.43359375 C-9.45978516 51.92052734 -9.45978516 51.92052734 -10.5625 53.4375 C-11.4175836 54.6217343 -12.27168912 55.80667522 -13.125 56.9921875 C-13.58132813 57.62608398 -14.03765625 58.25998047 -14.5078125 58.91308594 C-17.38873 62.94222252 -20.22397435 67.00344254 -23.0625 71.0625 C-23.66054443 71.91714844 -24.25858887 72.77179688 -24.87475586 73.65234375 C-27.51188368 77.42494688 -30.14349595 81.20103874 -32.75390625 84.9921875 C-33.1605249 85.58249756 -33.56714355 86.17280762 -33.98608398 86.78100586 C-35.0370696 88.30960981 -36.08507787 89.84025968 -37.1328125 91.37109375 C-40.40744202 95.9816077 -42.96752724 99.29020697 -48 102 C-48.75539063 102.47179687 -49.51078125 102.94359375 -50.2890625 103.4296875 C-68.10150869 114.45076625 -86.05127907 119.31237595 -106.734375 114.5703125 C-113.5363342 112.87535792 -120.2714298 110.9633788 -127 109 C-128.48246977 108.58119245 -129.96544776 108.16417391 -131.44921875 107.75 C-133.66953934 107.12469519 -135.88745042 106.49069459 -138.1015625 105.84375 C-142.71725717 104.50009764 -147.35832488 103.25041044 -152 102 C-152.33 103.98 -152.66 105.96 -153 108 C-159.95023264 107.35346673 -166.38177303 105.13972752 -173 103 C-173 102.01 -173 101.02 -173 100 C-174.16909912 99.87399414 -175.33819824 99.74798828 -176.54272461 99.61816406 C-182.67989147 98.84721529 -188.53756198 97.06978996 -194.46362305 95.35400391 C-196.55724221 94.75151306 -198.65607633 94.17043119 -200.75585938 93.58984375 C-207.58955827 91.65190033 -213.60431977 89.8358277 -219 85 C-221.3428852 80.31422959 -220.73536034 73.48583767 -219.28125 68.5703125 C-217.32927994 64.39876358 -215.15841474 61.16960769 -211 59 C-201.23770436 57.15264879 -191.04859096 61.63500084 -181.875 64.5 C-180.1384092 65.03121917 -178.40143248 65.56117848 -176.6640625 66.08984375 C-172.43811407 67.37873048 -168.21777045 68.68461027 -164 70 C-164 69.34 -164 68.68 -164 68 C-156.87352969 69.70022388 -149.9165788 71.57919742 -143 74 C-143.66 76.64 -144.32 79.28 -145 82 C-144.14664063 82.20753906 -143.29328125 82.41507812 -142.4140625 82.62890625 C-133.28929417 84.87717391 -124.20205909 87.25366903 -115.125 89.6875 C-113.96564941 89.99695557 -112.80629883 90.30641113 -111.61181641 90.62524414 C-110.52562012 90.91778076 -109.43942383 91.21031738 -108.3203125 91.51171875 C-107.34336426 91.77428467 -106.36641602 92.03685059 -105.35986328 92.30737305 C-103 93 -103 93 -101 94 C-83.25728351 95.15016547 -68.78328209 91.80148223 -55 80 C-52.99544194 77.54870575 -52.99544194 77.54870575 -51.1875 74.82421875 C-50.16269531 73.33438477 -50.16269531 73.33438477 -49.1171875 71.81445312 C-48.41851562 70.78255859 -47.71984375 69.75066406 -47 68.6875 C-45.60445559 66.6495417 -44.2086289 64.61177668 -42.8125 62.57421875 C-42.15668945 61.61153076 -41.50087891 60.64884277 -40.82519531 59.65698242 C-39.27943251 57.40677689 -37.70822789 55.18131283 -36.109375 52.96875 C-33.94108242 50.03801893 -33.94108242 50.03801893 -32.25 46.8125 C-30.4808516 43.63497073 -28.39942252 40.82333536 -26.1875 37.9375 C-18.41662319 27.73983774 -11.27314221 17.04091883 -4.24365234 6.32177734 C-3.70305176 5.49758301 -3.16245117 4.67338867 -2.60546875 3.82421875 C-2.1261792 3.08647217 -1.64688965 2.34872559 -1.15307617 1.58862305 C-0.77256104 1.06437744 -0.3920459 0.54013184 0 0 Z " fill="#8C8B8B" transform="translate(441,340)"/>
<path d="M0 0 C0.33 0 0.66 0 1 0 C1.19936709 4.12536512 1.34365032 8.24882865 1.43945312 12.37792969 C1.47942324 13.77881763 1.53382527 15.17937735 1.60351562 16.57910156 C2.16531519 28.16208678 2.16531519 28.16208678 -0.74609375 32.75390625 C-2.73561142 34.79379146 -4.58534435 36.49053441 -7 38 C-7.66 38 -8.32 38 -9 38 C-9.33 38.99 -9.66 39.98 -10 41 C-11.4519043 42.37524414 -11.4519043 42.37524414 -13.32421875 43.78515625 C-14.01580078 44.31069092 -14.70738281 44.83622559 -15.41992188 45.37768555 C-16.16822266 45.93367432 -16.91652344 46.48966309 -17.6875 47.0625 C-18.45771484 47.64104736 -19.22792969 48.21959473 -20.02148438 48.81567383 C-22.34156406 50.5521414 -24.67006347 52.27679133 -27 54 C-27.62729004 54.46954102 -28.25458008 54.93908203 -28.90087891 55.42285156 C-46.78356111 68.79354926 -67.54553777 81.34939498 -89 88 C-89.99 87.67 -90.98 87.34 -92 87 C-92.33 86.34 -92.66 85.68 -93 85 C-91.42875661 81.85751322 -88.7022315 81.29871176 -85.5625 79.875 C-84.38816406 79.33617187 -83.21382813 78.79734375 -82.00390625 78.2421875 C-79 77 -79 77 -77 77 C-77 75.68 -77 74.36 -77 73 C-77.33 72.67 -77.66 72.34 -78 72 C-81.63 73.32 -85.26 74.64 -89 76 C-89 75.34 -89 74.68 -89 74 C-86.89915791 72.99303432 -84.79420511 71.9946411 -82.6875 71 C-81.51574219 70.443125 -80.34398437 69.88625 -79.13671875 69.3125 C-76 68 -76 68 -73 68 C-72.505 66.515 -72.505 66.515 -72 65 C-71.29875 64.896875 -70.5975 64.79375 -69.875 64.6875 C-64.79916479 63.47371332 -60.9979884 61.05775125 -56.9375 57.875 C-53.99700107 55.59484344 -51.82085939 54.23880371 -48 54 C-48 53.34 -48 52.68 -48 52 C-47.24074219 51.61328125 -46.48148437 51.2265625 -45.69921875 50.828125 C-44.20841797 50.04695313 -44.20841797 50.04695313 -42.6875 49.25 C-41.20830078 48.48429687 -41.20830078 48.48429687 -39.69921875 47.703125 C-37.01182492 46.00746117 -35.76537603 44.58425528 -34 42 C-31.68381104 40.45587402 -29.42021901 39.18539074 -26.875 38.0625 C-24.57791162 36.76081659 -23.5453039 35.10723259 -22 33 C-21.34 33 -20.68 33 -20 33 C-20 32.01 -20 31.02 -20 30 C-19.030625 29.566875 -18.06125 29.13375 -17.0625 28.6875 C-13.72268235 27.2985139 -13.72268235 27.2985139 -13 24 C-11.5625 22.3125 -11.5625 22.3125 -10 21 C-9.34 21 -8.68 21 -8 21 C-8 19.68 -8 18.36 -8 17 C-11.11785113 17.64644661 -11.11785113 17.64644661 -12 20 C-12.9075 20.433125 -13.815 20.86625 -14.75 21.3125 C-18.24937795 23.12948471 -20.29675512 25.15812718 -23 28 C-25.625 30.375 -25.625 30.375 -28 32 C-28.99 31.67 -29.98 31.34 -31 31 C-30.360625 30.38125 -29.72125 29.7625 -29.0625 29.125 C-26.96116416 27.17402388 -26.96116416 27.17402388 -26 25 C-25.030625 24.731875 -24.06125 24.46375 -23.0625 24.1875 C-22.051875 23.795625 -21.04125 23.40375 -20 23 C-19.27840576 21.35636866 -18.60648579 19.68949614 -18 18 C-15.875 17.1875 -15.875 17.1875 -14 17 C-14 16.34 -14 15.68 -14 15 C-13.34 15 -12.68 15 -12 15 C-12 14.01 -12 13.02 -12 12 C-10.53311963 10.72445185 -9.06023134 9.45118883 -7.5078125 8.28125 C-5.72500021 6.88527155 -5.72500021 6.88527155 -4 4 C-3.34 4 -2.68 4 -2 4 C-1.34 2.68 -0.68 1.36 0 0 Z " fill="#241D20" transform="translate(441,409)"/>
<path d="M0 0 C1.57515472 0.47452428 3.1506736 0.94784151 4.7265625 1.41992188 C16.03065025 4.82782513 16.03065025 4.82782513 18.5 6.0625 C17.625 13.6875 17.625 13.6875 16.5 17.0625 C10.54286866 16.50834825 5.15993338 14.77512195 -0.51171875 12.90234375 C-3.62445882 11.88212443 -3.62445882 11.88212443 -7.5 12.0625 C-8.16 14.3725 -8.82 16.6825 -9.5 19.0625 C-8.34242188 19.32804687 -7.18484375 19.59359375 -5.9921875 19.8671875 C-4.45309007 20.22380764 -2.91402952 20.58058691 -1.375 20.9375 C-0.61445313 21.11152344 0.14609375 21.28554688 0.9296875 21.46484375 C5.20725424 22.46048428 9.35405809 23.59221389 13.5 25.0625 C13.04177532 28.53191546 12.60868317 31.73645049 11.5 35.0625 C3.50802277 35.65613911 -3.46237325 33.74440015 -11.0390625 31.49194336 C-13.12255587 30.87572288 -15.21259938 30.28745677 -17.3046875 29.70117188 C-24.11263515 27.74277264 -30.11578645 25.87272082 -35.5 21.0625 C-37.8428852 16.37672959 -37.23536034 9.54833767 -35.78125 4.6328125 C-28.42150976 -11.09566462 -13.05002526 -4.03401724 0 0 Z " fill="#A9A9A9" transform="translate(257.5,403.9375)"/>
<path d="M0 0 C5.13355085 4.31684958 8.45272531 8.33975309 9.125 15.0625 C8.96407114 20.46367471 6.98670915 25.00732016 3.21875 28.890625 C-2.01355546 33.35347377 -5.4769246 33.66644402 -12.19921875 33.5859375 C-16.73051768 33.17980315 -18.70559207 32.19233145 -22.25 29.3125 C-25.53318439 25.06248831 -27.59521112 20.62282803 -27.03125 15.21484375 C-26.07384731 9.70057247 -24.47715044 6.17989296 -20.25 2.3125 C-13.67815034 -1.713385 -7.16585926 -3.72073462 0 0 Z " fill="#A40202" transform="translate(274.25,239.6875)"/>
<path d="M0 0 C1.8136522 0.43269875 3.62585732 0.87146339 5.4375 1.3125 C6.44683594 1.55613281 7.45617187 1.79976563 8.49609375 2.05078125 C12.72654718 3.19682382 16.85603396 4.57676682 21 6 C19.89902989 9.87826094 18.79626601 13.756007 17.69189453 17.63330078 C17.31706156 18.95022041 16.94270449 20.26727559 16.56884766 21.58447266 C16.02894619 23.48636555 15.4871461 25.38771915 14.9453125 27.2890625 C14.62062988 28.43068848 14.29594727 29.57231445 13.96142578 30.74853516 C13.0418928 33.85832191 12.04490629 36.93033367 11 40 C4.04976736 39.35346673 -2.38177303 37.13972752 -9 35 C-9 34.01 -9 33.02 -9 32 C-10.32 31.67 -11.64 31.34 -13 31 C-11.35 31 -9.7 31 -8 31 C-7.34 27.7 -6.68 24.4 -6 21 C-6.83015625 20.87625 -7.6603125 20.7525 -8.515625 20.625 C-12.31964371 19.94266481 -16.02353157 19.01031954 -19.75 18 C-20.42160156 17.82210938 -21.09320313 17.64421875 -21.78515625 17.4609375 C-26.7383658 16.1308171 -26.7383658 16.1308171 -29 15 C-28.67 12.69 -28.34 10.38 -28 8 C-24.22696625 7.01049621 -21.84538221 7.04242756 -18.13671875 8.21484375 C-16.80737305 8.62573242 -16.80737305 8.62573242 -15.45117188 9.04492188 C-14.53916016 9.33947266 -13.62714844 9.63402344 -12.6875 9.9375 C-11.75615234 10.22818359 -10.82480469 10.51886719 -9.86523438 10.81835938 C-7.57336489 11.53530316 -5.28540582 12.26276207 -3 13 C-2.86722656 12.22914063 -2.73445313 11.45828125 -2.59765625 10.6640625 C-2.42105469 9.66117187 -2.24445313 8.65828125 -2.0625 7.625 C-1.88847656 6.62726563 -1.71445312 5.62953125 -1.53515625 4.6015625 C-1 2 -1 2 0 0 Z " fill="#949394" transform="translate(277,408)"/>
<path d="M0 0 C1.69490287 3.38980574 0.84188668 6.44536736 0 10 C-0.33 10.33 -0.66 10.66 -1 11 C-1.144375 11.9075 -1.28875 12.815 -1.4375 13.75 C-2 17 -2 17 -3.125 19.75 C-3.41375 20.4925 -3.7025 21.235 -4 22 C-3.505 22.99 -3.505 22.99 -3 24 C-3.99 24 -4.98 24 -6 24 C-6.350625 25.258125 -6.70125 26.51625 -7.0625 27.8125 C-11.84329353 42.08786012 -23.46978488 54.59462681 -33 66 C-31.515 66.495 -31.515 66.495 -30 67 C-30 69.31 -30 71.62 -30 74 C-31.485 74.495 -31.485 74.495 -33 75 C-33.73323796 77.01508358 -33.73323796 77.01508358 -34 79 C-37 78 -40 77 -43 76 C-43.44988281 76.4846875 -43.89976562 76.969375 -44.36328125 77.46875 C-56.00450257 89.59988244 -70.81194938 98.20136135 -85.875 105.4375 C-86.89037842 105.9325 -86.89037842 105.9325 -87.92626953 106.4375 C-92.83114537 108.72317453 -97.68630513 110.01418397 -103 111 C-100.98059498 108.98059498 -99.79138149 108.37232512 -97.19140625 107.34375 C-96.07088867 106.89322266 -96.07088867 106.89322266 -94.92773438 106.43359375 C-94.14720703 106.12550781 -93.36667969 105.81742187 -92.5625 105.5 C-91.02091536 104.88848344 -89.48050014 104.27400862 -87.94140625 103.65625 C-87.25763916 103.38619141 -86.57387207 103.11613281 -85.86938477 102.83789062 C-83.73572442 101.94360556 -83.73572442 101.94360556 -81 100 C-82.03898437 100.47050781 -83.07796875 100.94101562 -84.1484375 101.42578125 C-91.64704187 104.78558059 -99.00532963 107.98211445 -107 110 C-106.2109375 108.06640625 -106.2109375 108.06640625 -105 106 C-102.68529088 105.27129528 -100.3494053 104.60760482 -98 104 C-97.05060547 103.28650391 -97.05060547 103.28650391 -96.08203125 102.55859375 C-93.78805957 100.8413429 -91.75859777 100.08308467 -89.0625 99.125 C-73.42801718 92.7639114 -57.92262079 82.46632604 -46.2890625 70.1953125 C-45 69 -45 69 -43 69 C-43 68.34 -43 67.68 -43 67 C-42.34 67 -41.68 67 -41 67 C-40.74347656 66.42378906 -40.48695313 65.84757812 -40.22265625 65.25390625 C-38.47115417 62.02509889 -36.03851686 59.58849747 -33.55859375 56.90234375 C-31.7955971 54.98116107 -31.7955971 54.98116107 -31 52 C-29.5625 50.3125 -29.5625 50.3125 -28 49 C-27.34 49 -26.68 49 -26 49 C-25.88398438 48.40832031 -25.76796875 47.81664062 -25.6484375 47.20703125 C-24.96353157 44.87587551 -24.1176124 43.58266545 -22.625 41.6875 C-20.08506646 38.2861977 -18.53201387 34.95098314 -17 31 C-16.34 31 -15.68 31 -15 31 C-14.82984375 30.45472656 -14.6596875 29.90945313 -14.484375 29.34765625 C-12.95221945 24.58004457 -11.20507734 20.02559846 -9.10546875 15.48046875 C-7.338766 11.5163124 -5.80559533 7.45584099 -4.24609375 3.40625 C-3 1 -3 1 0 0 Z M-33 71 C-33.33 71.66 -33.66 72.32 -34 73 C-33.01 72.67 -32.02 72.34 -31 72 C-31.66 71.67 -32.32 71.34 -33 71 Z " fill="#494247" transform="translate(419,301)"/>
<path d="M0 0 C0.99 0.495 0.99 0.495 2 1 C2 3 2 3 1.5 5.4375 C0.90424482 8.05560783 0.90424482 8.05560783 1 11 C-0.23833919 14.12329885 -1.73675648 15.88204387 -4.3125 18 C-9.87035853 22.7074758 -15.20563005 27.64133948 -20.52246094 32.61767578 C-21.75309724 33.76900803 -22.98915874 34.91453799 -24.2265625 36.05859375 C-30.53638901 42.09577343 -35.71088758 49.07748522 -41 56 C-41.62648438 55.80535156 -42.25296875 55.61070313 -42.8984375 55.41015625 C-43.59195313 55.27480469 -44.28546875 55.13945313 -45 55 C-46.64594139 56.39588754 -46.64594139 56.39588754 -48 58 C-48.66 58 -49.32 58 -50 58 C-50.37318359 58.83337891 -50.37318359 58.83337891 -50.75390625 59.68359375 C-52.22095985 62.41074982 -53.98886002 64.65663723 -55.9375 67.0625 C-56.97197266 68.34833984 -56.97197266 68.34833984 -58.02734375 69.66015625 C-61.42733406 73.69301605 -61.42733406 73.69301605 -63 75 C-63.99 75 -64.98 75 -66 75 C-55.71525718 53.90185935 -39.2807288 36.31580196 -22.9375 19.75 C-22.37708008 19.17652832 -21.81666016 18.60305664 -21.23925781 18.01220703 C-19.86497393 16.63496315 -18.43677008 15.31192555 -17 14 C-16.34 14 -15.68 14 -15 14 C-15 13.34 -15 12.68 -15 12 C-10.52941176 8 -10.52941176 8 -8 8 C-8 7.34 -8 6.68 -8 6 C-6.25 4.4921875 -6.25 4.4921875 -4 2.875 C-3.2575 2.33617187 -2.515 1.79734375 -1.75 1.2421875 C-0.88375 0.62730469 -0.88375 0.62730469 0 0 Z " fill="#17171F" transform="translate(108,51)"/>
<path d="M0 0 C0.99 0.99 0.99 0.99 2 2 C-1.52380954 8.5076067 -5.70025193 14.50211511 -9.9375 20.5625 C-10.64068359 21.57763672 -11.34386719 22.59277344 -12.06835938 23.63867188 C-21.14183959 36.65788294 -30.45489621 45.33203384 -46.20703125 49.59765625 C-50.24667328 50.1795907 -54.23755778 50.10431077 -58.3125 50.0625 C-59.56643555 50.05573242 -59.56643555 50.05573242 -60.84570312 50.04882812 C-62.89716649 50.03710548 -64.94859273 50.01917203 -67 50 C-66.071875 49.319375 -66.071875 49.319375 -65.125 48.625 C-62.94080167 47.02891081 -62.94080167 47.02891081 -61 45 C-58.68060793 44.2863409 -56.34476551 43.6252708 -54 43 C-44.89573259 40.28966329 -37.80231115 35.43421116 -32 28 C-31.01 28 -30.02 28 -29 28 C-29 27.34 -29 26.68 -29 26 C-28.34 25.67 -27.68 25.34 -27 25 C-26.505 24.484375 -26.01 23.96875 -25.5 23.4375 C-24 22 -24 22 -22 22 C-21.505 20.515 -21.505 20.515 -21 19 C-20.34 19 -19.68 19 -19 19 C-19 18.34 -19 17.68 -19 17 C-17.02 16.67 -15.04 16.34 -13 16 C-12.896875 15.401875 -12.79375 14.80375 -12.6875 14.1875 C-11.90175967 11.68741714 -11.03081147 10.62464918 -9 9 C-8.34 9 -7.68 9 -7 9 C-6.731875 8.401875 -6.46375 7.80375 -6.1875 7.1875 C-5.00082594 5.00152146 -3.90400887 3.58667406 -2 2 C-1.34 2 -0.68 2 0 2 C0 1.34 0 0.68 0 0 Z " fill="#443E44" transform="translate(407,385)"/>
<path d="M0 0 C0.33 0 0.66 0 1 0 C1.14592789 3.70791544 1.23427895 7.41508726 1.3125 11.125 C1.35439453 12.17171875 1.39628906 13.2184375 1.43945312 14.296875 C1.57759689 23.02756089 1.57759689 23.02756089 -1.39453125 26.6796875 C-4 29 -4 29 -6 30 C-6.33 30.99 -6.66 31.98 -7 33 C-7.66 33 -8.32 33 -9 33 C-9.226875 33.721875 -9.45375 34.44375 -9.6875 35.1875 C-11.27331875 38.58568303 -13.26123324 40.45230999 -16 43 C-17.2375 44.36125 -17.2375 44.36125 -18.5 45.75 C-21.13205177 48.11884659 -22.52815843 48.70241358 -26 49 C-26.66 48.01 -27.32 47.02 -28 46 C-29.485 46.495 -29.485 46.495 -31 47 C-29.40180549 42.15868565 -26.6506726 38.4531467 -23.6875 34.375 C-22.60681163 32.86678838 -21.52743437 31.35763662 -20.44921875 29.84765625 C-19.88638184 29.0602002 -19.32354492 28.27274414 -18.74365234 27.46142578 C-15.78047224 23.27845437 -12.88933956 19.04667023 -10 14.8125 C-9.46076904 14.02343262 -8.92153809 13.23436523 -8.3659668 12.42138672 C-6.11025696 9.11528111 -3.86986768 5.80421655 -1.6875 2.44921875 C-1.130625 1.64097656 -0.57375 0.83273437 0 0 Z " fill="#463F44" transform="translate(441,376)"/>
<path d="M0 0 C0.495 1.485 0.495 1.485 1 3 C-0.23363281 3.25523437 -0.23363281 3.25523437 -1.4921875 3.515625 C-22.29459585 8.03162127 -39.6321718 18.31652937 -53 35 C-53.61359375 35.75539062 -54.2271875 36.51078125 -54.859375 37.2890625 C-66.09887663 52.15902262 -70.2027003 69.66210696 -71 88 C-71.33 88 -71.66 88 -72 88 C-74.54042751 72.06459108 -74.54042751 72.06459108 -73 64 C-72.90976563 63.24976563 -72.81953125 62.49953125 -72.7265625 61.7265625 C-71.17607712 51.07989625 -66.40119313 41.64125939 -58 35 C-56.26103919 32.93947604 -56.26103919 32.93947604 -54.8125 30.8125 C-49.80877367 24.16310368 -43.64182083 18.36398896 -36.66015625 13.83203125 C-35.78230469 13.22746094 -34.90445313 12.62289062 -34 12 C-34 11.34 -34 10.68 -34 10 C-10.4375 -2.40865385 -10.4375 -2.40865385 0 0 Z " fill="#0F0C10" transform="translate(251,169)"/>
<path d="M0 0 C1.22050901 13.01876277 1.22050901 13.01876277 -1.7109375 17.77734375 C-6.94303797 23 -6.94303797 23 -10 23 C-10.33 23.99 -10.66 24.98 -11 26 C-14.82934661 29.83772593 -18.75591482 33.28015635 -24.3125 33.6875 C-28.00584059 33.66785929 -28.00584059 33.66785929 -30.375 35.8125 C-31.86681428 37.82071153 -33.01601418 39.70403309 -34 42 C-35.65 42 -37.3 42 -39 42 C-39.495 40.515 -39.495 40.515 -40 39 C-39.01 38.34 -38.02 37.68 -37 37 C-37 36.01 -37 35.02 -37 34 C-34.6640625 32.09765625 -34.6640625 32.09765625 -31.625 30.0625 C-27.86882097 27.54382181 -25.94850128 25.99368392 -24 22 C-22.03603549 20.05316309 -20.06654306 18.20523168 -18 16.375 C-12.76727063 11.65706123 -7.7475504 6.81200332 -2.828125 1.765625 C-1 0 -1 0 0 0 Z " fill="#110E10" transform="translate(442,424)"/>
<path d="M0 0 C1 3 1 3 1 5 C1.66 5 2.32 5 3 5 C3 7.31 3 9.62 3 12 C2.01 12.33 1.02 12.66 0 13 C-0.73323796 15.01508358 -0.73323796 15.01508358 -1 17 C-4 16 -7 15 -10 14 C-10.67482422 14.72703125 -10.67482422 14.72703125 -11.36328125 15.46875 C-23.00450257 27.59988244 -37.81194938 36.20136135 -52.875 43.4375 C-53.89037842 43.9325 -53.89037842 43.9325 -54.92626953 44.4375 C-59.83114537 46.72317453 -64.68630513 48.01418397 -70 49 C-67.98059498 46.98059498 -66.79138149 46.37232512 -64.19140625 45.34375 C-63.44439453 45.04339844 -62.69738281 44.74304688 -61.92773438 44.43359375 C-61.14720703 44.12550781 -60.36667969 43.81742187 -59.5625 43.5 C-58.02091536 42.88848344 -56.48050014 42.27400862 -54.94140625 41.65625 C-53.91575562 41.25116211 -53.91575562 41.25116211 -52.86938477 40.83789062 C-50.73572442 39.94360556 -50.73572442 39.94360556 -48 38 C-49.03898437 38.47050781 -50.07796875 38.94101562 -51.1484375 39.42578125 C-58.64704187 42.78558059 -66.00532963 45.98211445 -74 48 C-73.2109375 46.06640625 -73.2109375 46.06640625 -72 44 C-69.68529088 43.27129528 -67.3494053 42.60760482 -65 42 C-64.37996094 41.53207031 -63.75992187 41.06414062 -63.12109375 40.58203125 C-60.66346585 38.74899387 -58.30254681 37.83345312 -55.4375 36.75 C-49.86207394 34.51982958 -45.1067594 31.67105941 -40.1796875 28.2578125 C-39.46039063 27.84273438 -38.74109375 27.42765625 -38 27 C-37.34 27.33 -36.68 27.66 -36 28 C-36.66 28.99 -37.32 29.98 -38 31 C-23.65282475 22.28844681 -11.6417963 12.06174086 0 0 Z M0 9 C-0.33 9.66 -0.66 10.32 -1 11 C-0.01 10.67 0.98 10.34 2 10 C1.34 9.67 0.68 9.34 0 9 Z " fill="#3B353B" transform="translate(386,363)"/>
<path d="M0 0 C0.495 0.99 0.495 0.99 1 2 C-1.55751962 9.51271387 -6.09938696 16.53697007 -11.17578125 22.59765625 C-13.51120831 25.67321866 -13.70231878 28.2045644 -14 32 C-14.66 32 -15.32 32 -16 32 C-16.33 32.99 -16.66 33.98 -17 35 C-17.33 34.34 -17.66 33.68 -18 33 C-22.47347951 34.82252869 -25.73172822 38.00700149 -28.3125 42.0625 C-30.45206923 44.51904245 -32.71504011 45.48523094 -35.671875 46.77734375 C-37.72524239 47.85570616 -39.42245883 49.00297254 -41.28125 50.375 C-44.92343357 53.02585167 -48.70991322 55.08530005 -52.75 57.0625 C-53.44448242 57.40466553 -54.13896484 57.74683105 -54.85449219 58.09936523 C-70.7594962 65.81494512 -70.7594962 65.81494512 -76 64 C-75.35417969 63.74347656 -74.70835937 63.48695313 -74.04296875 63.22265625 C-67.30475227 60.48496775 -60.6654429 57.54814622 -54.0625 54.5 C-53.24612061 54.13269775 -52.42974121 53.76539551 -51.58862305 53.38696289 C-45.63705388 50.60555161 -41.69896979 47.54845468 -38 42 C-38 41.34 -38 40.68 -38 40 C-37.360625 39.731875 -36.72125 39.46375 -36.0625 39.1875 C-33.66868314 38.11332248 -33.66868314 38.11332248 -33 35 C-32.01 35 -31.02 35 -30 35 C-30 34.34 -30 33.68 -30 33 C-27.625 30.375 -27.625 30.375 -25 28 C-24.34 28 -23.68 28 -23 28 C-23 25.69 -23 23.38 -23 21 C-21.02 21.66 -19.04 22.32 -17 23 C-16.38125 22.175 -15.7625 21.35 -15.125 20.5 C-14.073125 19.2625 -14.073125 19.2625 -13 18 C-12.34 18 -11.68 18 -11 18 C-10.01 15.525 -10.01 15.525 -9 13 C-8.34 13 -7.68 13 -7 13 C-5.52952664 9.08936776 -5.52952664 9.08936776 -5 5 C-3.37446717 3.29319053 -1.70884005 1.62339805 0 0 Z " fill="#332C32" transform="translate(372,307)"/>
<path d="M0 0 C2 0 4 0 6 0 C6.495 2.97 6.495 2.97 7 6 C6.01 6.33 5.02 6.66 4 7 C2.6236116 9.14617934 2.6236116 9.14617934 1.375 11.8125 C-2.05233177 18.3743764 -6.12649928 24.41496817 -11 30 C-11.66 30 -12.32 30 -13 30 C-13.495 31.485 -13.495 31.485 -14 33 C-15.98042729 34.84343533 -17.93944179 36.52304759 -20.0625 38.1875 C-20.67794678 38.6714624 -21.29339355 39.1554248 -21.92749023 39.65405273 C-28.7564052 44.83930257 -36.19420805 48.52009946 -44 52 C-45.37478516 52.63228516 -45.37478516 52.63228516 -46.77734375 53.27734375 C-49 54 -49 54 -52 53 C-49.69949368 49.54924052 -48.13461528 49.25218528 -44.3515625 47.9453125 C-38.67091116 45.66172841 -33.53423592 42.0752934 -28.5 38.625 C-26 37 -26 37 -24 37 C-24 36.34 -24 35.68 -24 35 C-23.175 34.360625 -22.35 33.72125 -21.5 33.0625 C-20.675 32.381875 -19.85 31.70125 -19 31 C-19 30.01 -19 29.02 -19 28 C-17.49609375 26.125 -17.49609375 26.125 -15.4375 24 C-8.87339289 16.85499845 -4.12449893 8.74393773 0 0 Z " fill="#0F0B0E" transform="translate(341,286)"/>
<path d="M0 0 C0 0.66 0 1.32 0 2 C-1.134375 1.608125 -2.26875 1.21625 -3.4375 0.8125 C-4.27410156 0.544375 -5.11070312 0.27625 -5.97265625 0 C-8.14466468 -0.71746343 -10.29693618 -1.49575718 -12.43359375 -2.3125 C-31.02095016 -9.01944966 -55.05406083 -8.6031526 -73.5625 -1.4375 C-88.72754945 6.20312836 -100.73948943 16.75116108 -110 31 C-110.77077203 32.10420946 -111.54159502 33.20838335 -112.3125 34.3125 C-114.07204102 36.93649266 -114.07204102 36.93649266 -115.125 39.8125 C-116 42 -116 42 -118 43 C-116.29050321 29.32402565 -103.49623369 16.12068014 -93.25390625 7.7578125 C-84.59978871 1.03295683 -76.25459768 -3.42105658 -65.875 -6.75 C-65.21790039 -6.96108398 -64.56080078 -7.17216797 -63.88378906 -7.38964844 C-42.2307283 -13.97971041 -19.86632855 -9.64256638 0 0 Z " fill="#462527" transform="translate(305,181)"/>
<path d="M0 0 C0.33 0 0.66 0 1 0 C2.33267656 5.21380479 2.81984588 9.89474004 1 15 C-7.54900427 27.71329825 -22.23201705 38.69186156 -35 47 C-35.99 47 -36.98 47 -38 47 C-34.81405514 42.63407556 -31.79712262 40.23402468 -26.875 38.0625 C-24.57791162 36.76081659 -23.5453039 35.10723259 -22 33 C-21.34 33 -20.68 33 -20 33 C-20 32.01 -20 31.02 -20 30 C-19.030625 29.566875 -18.06125 29.13375 -17.0625 28.6875 C-13.72268235 27.2985139 -13.72268235 27.2985139 -13 24 C-11.5625 22.3125 -11.5625 22.3125 -10 21 C-9.34 21 -8.68 21 -8 21 C-8 19.68 -8 18.36 -8 17 C-11.11785113 17.64644661 -11.11785113 17.64644661 -12 20 C-12.9075 20.433125 -13.815 20.86625 -14.75 21.3125 C-18.24937795 23.12948471 -20.29675512 25.15812718 -23 28 C-25.625 30.375 -25.625 30.375 -28 32 C-28.99 31.67 -29.98 31.34 -31 31 C-30.360625 30.38125 -29.72125 29.7625 -29.0625 29.125 C-26.96116416 27.17402388 -26.96116416 27.17402388 -26 25 C-25.030625 24.731875 -24.06125 24.46375 -23.0625 24.1875 C-22.051875 23.795625 -21.04125 23.40375 -20 23 C-19.27840576 21.35636866 -18.60648579 19.68949614 -18 18 C-15.875 17.1875 -15.875 17.1875 -14 17 C-14 16.34 -14 15.68 -14 15 C-13.34 15 -12.68 15 -12 15 C-12 14.01 -12 13.02 -12 12 C-10.53311963 10.72445185 -9.06023134 9.45118883 -7.5078125 8.28125 C-5.72500021 6.88527155 -5.72500021 6.88527155 -4 4 C-3.34 4 -2.68 4 -2 4 C-1.34 2.68 -0.68 1.36 0 0 Z " fill="#423B41" transform="translate(441,409)"/>
<path d="M0 0 C3.94994291 1.31664764 5.1384247 3.79267368 7.3125 7.125 C20.31559396 26.32561177 36.99104975 36.60779141 59.72265625 41.59765625 C64.50502604 42.18476482 69.24892366 42.14683558 74.0625 42.125 C75.59209351 42.12209961 75.59209351 42.12209961 77.15258789 42.11914062 C84.47727799 42.07725533 91.7129849 41.78324922 99 41 C98 43 98 43 95.47265625 43.8515625 C71.57441352 49.2717825 49.19828866 45.25285234 28.25 32.75 C17.8404954 25.73728111 9.98118225 17.37925169 3 7 C2.43410156 6.29746094 1.86820313 5.59492188 1.28515625 4.87109375 C0 3 0 3 0 0 Z " fill="#322627" transform="translate(190,294)"/>
<path d="M0 0 C0.66 0.33 1.32 0.66 2 1 C0.25 4.875 0.25 4.875 -2 6 C-1.01 6.99 -0.02 7.98 1 9 C-7.17421984 14.42209557 -15.94550985 18.27996839 -24.93408203 22.11767578 C-26.71927482 22.88010626 -28.49886084 23.65563996 -30.27734375 24.43359375 C-31.59412109 24.99240234 -31.59412109 24.99240234 -32.9375 25.5625 C-33.66839844 25.87316406 -34.39929688 26.18382812 -35.15234375 26.50390625 C-37 27 -37 27 -40 26 C-40.33 25.34 -40.66 24.68 -41 24 C-39.32470189 20.64940378 -35.56594399 19.89526516 -32.25 18.5 C-31.17492187 18.03787109 -31.17492187 18.03787109 -30.078125 17.56640625 C-27.08494744 16.28440189 -24.1225478 15.04279447 -21.046875 13.96875 C-20.37140625 13.6490625 -19.6959375 13.329375 -19 13 C-18.67 12.01 -18.34 11.02 -18 10 C-15.48828125 8.28125 -15.48828125 8.28125 -12.3125 6.5 C-11.27738281 5.9121875 -10.24226563 5.324375 -9.17578125 4.71875 C-8.12777344 4.1515625 -7.07976562 3.584375 -6 3 C-4.92105469 2.4121875 -3.84210938 1.824375 -2.73046875 1.21875 C-1.82941406 0.8165625 -0.92835938 0.414375 0 0 Z " fill="#393538" transform="translate(389,470)"/>
<path d="M0 0 C0.66 0 1.32 0 2 0 C1.5248459 4.27638694 -0.87883735 6.23351492 -4 9 C-5.63377642 10.05287814 -7.29181597 11.0727001 -9 12 C-9 11.01 -9 10.02 -9 9 C-11.94215453 10.59573724 -14.87784063 12.20302625 -17.8125 13.8125 C-18.64587891 14.26431641 -19.47925781 14.71613281 -20.33789062 15.18164062 C-21.14033203 15.62314453 -21.94277344 16.06464844 -22.76953125 16.51953125 C-23.50792236 16.92276611 -24.24631348 17.32600098 -25.00708008 17.74145508 C-26.97635625 18.98506878 -28.38856087 20.33351794 -30 22 C-32.1875 23.1875 -32.1875 23.1875 -34 24 C-34 22.68 -34 21.36 -34 20 C-34.33 19.67 -34.66 19.34 -35 19 C-38.63 20.32 -42.26 21.64 -46 23 C-46 22.34 -46 21.68 -46 21 C-43.89915791 19.99303432 -41.79420511 18.9946411 -39.6875 18 C-38.51574219 17.443125 -37.34398437 16.88625 -36.13671875 16.3125 C-33 15 -33 15 -30 15 C-29.67 14.01 -29.34 13.02 -29 12 C-28.2575 11.87625 -27.515 11.7525 -26.75 11.625 C-24.05698938 11.12760666 -24.05698938 11.12760666 -22 10 C-20 9 -20 9 -17.69921875 8.62890625 C-14.58739053 7.90386378 -12.49683377 6.65531118 -9.8125 4.9375 C-5.20235294 2 -5.20235294 2 -3 2 C-3 2.66 -3 3.32 -3 4 C-0.94729537 2.15811388 -0.94729537 2.15811388 0 0 Z " fill="#251F21" transform="translate(398,462)"/>
<path d="M0 0 C0.33 0.66 0.66 1.32 1 2 C-1.55751962 9.51271387 -6.09938696 16.53697007 -11.17578125 22.59765625 C-13.51120831 25.67321866 -13.70231878 28.2045644 -14 32 C-14.66 32 -15.32 32 -16 32 C-16.33 32.99 -16.66 33.98 -17 35 C-17.33 34.34 -17.66 33.68 -18 33 C-20.88080957 34.17366316 -22.34257199 35.35092741 -24.5625 37.625 C-27 40 -27 40 -30 40 C-30 38.68 -30 37.36 -30 36 C-24.77272727 31 -24.77272727 31 -22 31 C-21.34 29.35 -20.68 27.7 -20 26 C-19.34 26 -18.68 26 -18 26 C-17.731875 25.236875 -17.46375 24.47375 -17.1875 23.6875 C-16.04865495 21.11011382 -15.18583329 19.73045136 -13 18 C-12.34 18 -11.68 18 -11 18 C-10.34 16.35 -9.68 14.7 -9 13 C-8.34 13 -7.68 13 -7 13 C-5.52952664 9.08936776 -5.52952664 9.08936776 -5 5 C-3.37446717 3.29319053 -1.70884005 1.62339805 0 0 Z " fill="#3B3539" transform="translate(372,307)"/>
<path d="M0 0 C0.99 0.33 1.98 0.66 3 1 C-0.6316554 5.58464299 -4.03760667 8.82406827 -9 12 C-11.12629176 13.83163709 -13.20290249 15.70655346 -15.265625 17.609375 C-17 19 -17 19 -19 19 C-20.42477709 20.62831668 -21.84283419 22.26310535 -23.22265625 23.9296875 C-26.27668372 27.4871261 -29.65606392 30.71786151 -33 34 C-34.00120554 34.998793 -35.00141543 35.99858657 -36 37 C-36.66 37.66 -37.32 38.32 -38 39 C-38.33 37.68 -38.66 36.36 -39 35 C-38.34 35 -37.68 35 -37 35 C-37 34.34 -37 33.68 -37 33 C-36.34 33 -35.68 33 -35 33 C-35 32.34 -35 31.68 -35 31 C-34.34 31 -33.68 31 -33 31 C-32.7525 30.4225 -32.505 29.845 -32.25 29.25 C-30.81700012 26.67060021 -29.21575324 24.93878408 -27 23 C-26.34 23 -25.68 23 -25 23 C-24.79375 22.46375 -24.5875 21.9275 -24.375 21.375 C-22.47418297 18.09177059 -20.02358811 15.30808253 -17 13 C-16.01 13 -15.02 13 -14 13 C-13.79246094 12.43925781 -13.58492187 11.87851563 -13.37109375 11.30078125 C-11.51214619 8.18135072 -8.93556997 6.308994 -6.0625 4.1875 C-5.25522461 3.55811523 -5.25522461 3.55811523 -4.43164062 2.91601562 C-2.84765625 1.73046875 -2.84765625 1.73046875 0 0 Z " fill="#2B272D" transform="translate(136,78)"/>
<path d="M0 0 C1.69490287 3.38980574 0.84188668 6.44536736 0 10 C-0.33 10.33 -0.66 10.66 -1 11 C-1.144375 11.9075 -1.28875 12.815 -1.4375 13.75 C-2 17 -2 17 -3.125 19.75 C-3.558125 20.86375 -3.558125 20.86375 -4 22 C-3.67 22.66 -3.34 23.32 -3 24 C-3.99 24 -4.98 24 -6 24 C-6.15855469 24.59167969 -6.31710937 25.18335938 -6.48046875 25.79296875 C-8.08163388 31.21569926 -9.65489248 34.35950451 -14 38 C-14 33.92565991 -12.23706323 30.9039956 -10.5 27.3125 C-10.16613281 26.61060547 -9.83226562 25.90871094 -9.48828125 25.18554688 C-8.66400589 23.45456863 -7.83267594 21.7269529 -7 20 C-7.99 20.33 -8.98 20.66 -10 21 C-6.38621 6.35319964 -6.38621 6.35319964 -3 1 C-2.01 0.67 -1.02 0.34 0 0 Z " fill="#353035" transform="translate(419,301)"/>
<path d="M0 0 C-3.91440768 2.02710398 -7.68482172 3.90032475 -11.84765625 5.34765625 C-16.00809631 6.88613717 -19.38106732 9.00164308 -22.9375 11.625 C-23.54086182 12.06521484 -24.14422363 12.50542969 -24.76586914 12.95898438 C-33.51025089 19.47142896 -40.03671366 26.89977658 -46 36 C-46.4125 36.59039062 -46.825 37.18078125 -47.25 37.7890625 C-48.84824435 40.08066286 -50.08446864 42.21117159 -51.125 44.8125 C-52 47 -52 47 -54 48 C-52.29050321 34.32402565 -39.49623369 21.12068014 -29.25390625 12.7578125 C-8.98279159 -2.99426386 -8.98279159 -2.99426386 0 0 Z " fill="#A69D9E" transform="translate(241,176)"/>
<path d="M0 0 C0.30390254 3.0583737 0.3171797 4.54705121 -1.47436523 7.10546875 C-2.16216064 7.79253906 -2.84995605 8.47960937 -3.55859375 9.1875 C-4.32945312 9.96311279 -5.1003125 10.73872559 -5.89453125 11.5378418 C-6.73371094 12.350354 -7.57289063 13.16286621 -8.4375 14 C-9.28828125 14.83635986 -10.1390625 15.67271973 -11.015625 16.53442383 C-32.19705506 37 -32.19705506 37 -39 37 C-35.81405514 32.63407556 -32.79712262 30.23402468 -27.875 28.0625 C-25.57791162 26.76081659 -24.5453039 25.10723259 -23 23 C-22.34 23 -21.68 23 -21 23 C-21 22.01 -21 21.02 -21 20 C-20.030625 19.566875 -19.06125 19.13375 -18.0625 18.6875 C-14.72268235 17.2985139 -14.72268235 17.2985139 -14 14 C-12.5625 12.3125 -12.5625 12.3125 -11 11 C-10.34 11 -9.68 11 -9 11 C-8.9175 10.0925 -8.835 9.185 -8.75 8.25 C-7.8962746 4.55052329 -6.93346994 3.32952025 -4 1 C-1 0 -1 0 0 0 Z " fill="#50484E" transform="translate(442,419)"/>
<path d="M0 0 C0.99 0 1.98 0 3 0 C2.80664062 0.6290625 2.61328125 1.258125 2.4140625 1.90625 C2.15367187 2.7621875 1.89328125 3.618125 1.625 4.5 C1.36976563 5.3353125 1.11453125 6.170625 0.8515625 7.03125 C0.57054687 8.0109375 0.28953125 8.990625 0 10 C-0.36351562 11.10601562 -0.72703125 12.21203125 -1.1015625 13.3515625 C-2.74893325 20.01986708 -2.13093549 27.05388473 -2 33.875 C-1.94686406 36.68487928 -1.90694219 39.49449685 -1.875 42.3046875 C-1.85179687 43.54202637 -1.82859375 44.77936523 -1.8046875 46.05419922 C-2 49 -2 49 -4 51 C-7.94330822 33.36073732 -6.9393179 16.69187278 0 0 Z " fill="#3F292D" transform="translate(186,223)"/>
<path d="M0 0 C0.66 0.33 1.32 0.66 2 1 C0.60026042 1.87890625 -0.79947917 2.7578125 -2.19921875 3.63671875 C-4.70924422 5.53693326 -6.79482176 7.75152233 -9 10 C-10.2455638 11.22582266 -11.4931152 12.44962758 -12.7421875 13.671875 C-23.06138461 23.73223044 -23.06138461 23.73223044 -32 35 C-32.66 34.34 -33.32 33.68 -34 33 C-30.185989 26.96464193 -26.21519544 20.93292971 -21 16 C-20.34 16 -19.68 16 -19 16 C-19 15.34 -19 14.68 -19 14 C-16.80790789 12.10453741 -14.60936994 10.32243931 -12.3125 8.5625 C-11.37374023 7.82676758 -11.37374023 7.82676758 -10.41601562 7.07617188 C-3.68131005 1.85060451 -3.68131005 1.85060451 0 0 Z " fill="#0B0A0F" transform="translate(209,164)"/>
<path d="M0 0 C0.495 1.485 0.495 1.485 1 3 C-13.70698739 19.50130394 -32.62161589 38.91697234 -55.875 41.875 C-56.90625 41.91625 -57.9375 41.9575 -59 42 C-56.61635786 39.61635786 -55.03383019 39.30531668 -51.8125 38.375 C-31.10982071 31.67269376 -14.30524552 17.89884978 -1 1 C-0.67 0.67 -0.34 0.34 0 0 Z " fill="#363035" transform="translate(351,318)"/>
<path d="M0 0 C2.375 2.1875 2.375 2.1875 4 5 C4 8.25984674 3.4695324 9.49692957 1.25 11.875 C-1 13 -1 13 -3.625 12.8125 C-6 12 -6 12 -8 10 C-8.55416667 3.90416667 -8.55416667 3.90416667 -6.8125 1.0625 C-4.26385815 -0.43153143 -2.90641128 -0.56710464 0 0 Z " fill="#F9F2F1" transform="translate(267,249)"/>
<path d="M0 0 C1.39346667 2.78693333 0.87916585 4.02436173 0 7 C-1.31431695 9.01254782 -2.64721885 11.01310269 -4 13 C-4.144375 13.70125 -4.28875 14.4025 -4.4375 15.125 C-5.3254369 18.08478967 -7.56650967 19.25287873 -10 21 C-10 20.34 -10 19.68 -10 19 C-11.65 19 -13.3 19 -15 19 C-12.48406973 14.38304726 -9.25335324 10.62279858 -5.8125 6.6875 C-5.25369141 6.04232422 -4.69488281 5.39714844 -4.11914062 4.73242188 C-2.74946151 3.1520229 -1.37519035 1.57560569 0 0 Z " fill="#21222B" transform="translate(73,83)"/>
<path d="M0 0 C1.32 0 2.64 0 4 0 C3.42380903 3.56764821 2.13030516 5.25159497 -0.4375 7.75 C-1.05496094 8.36359375 -1.67242187 8.9771875 -2.30859375 9.609375 C-4 11 -4 11 -6 11 C-6.33 11.99 -6.66 12.98 -7 14 C-9.06640625 15.82421875 -9.06640625 15.82421875 -11.5625 17.6875 C-12.38878906 18.31011719 -13.21507812 18.93273437 -14.06640625 19.57421875 C-15.02353516 20.27998047 -15.02353516 20.27998047 -16 21 C-17.0625 19.125 -17.0625 19.125 -18 17 C-16.49736177 13.99472353 -14.08347159 14.02782386 -11 13 C-10.67 12.34 -10.34 11.68 -10 11 C-10.66 10.67 -11.32 10.34 -12 10 C-11.34 10 -10.68 10 -10 10 C-10 9.34 -10 8.68 -10 8 C-8.8553125 7.62875 -8.8553125 7.62875 -7.6875 7.25 C-4.72509328 5.87213641 -3.88592499 4.5717159 -2 2 C-1.01 2 -0.02 2 1 2 C0.67 1.34 0.34 0.68 0 0 Z " fill="#383A40" transform="translate(438,436)"/>
<path d="M0 0 C-1.42947484 4.67828129 -2.95985769 9.10372375 -5.25 13.4375 C-5.8275 14.613125 -6.405 15.78875 -7 17 C-6.67 17.66 -6.34 18.32 -6 19 C-7.65 20.65 -9.3 22.3 -11 24 C-11.33 23.34 -11.66 22.68 -12 22 C-12.99 22 -13.98 22 -15 22 C-14.731875 21.484375 -14.46375 20.96875 -14.1875 20.4375 C-12.67650593 17.33598585 -11.34427274 14.17737194 -10 11 C-9.34 11 -8.68 11 -8 11 C-7.81824219 10.37351562 -7.63648438 9.74703125 -7.44921875 9.1015625 C-7.19785156 8.28429687 -6.94648438 7.46703125 -6.6875 6.625 C-6.44386719 5.81289063 -6.20023437 5.00078125 -5.94921875 4.1640625 C-4.69142795 1.29650652 -3.21723189 0 0 0 Z " fill="#433D41" transform="translate(412,321)"/>
<path d="M0 0 C-0.33 0.66 -0.66 1.32 -1 2 C-2.32349682 2.37046599 -3.65910101 2.6985389 -5 3 C-6.25984354 3.58336234 -7.5092157 4.18962628 -8.75 4.8125 C-13.1989024 6.83201851 -17.72148357 8.15180297 -22.4375 9.375 C-23.1480957 9.56682861 -23.85869141 9.75865723 -24.59082031 9.95629883 C-26.62109375 10.4609375 -26.62109375 10.4609375 -30 11 C-30.66 10.34 -31.32 9.68 -32 9 C-31.34 9 -30.68 9 -30 9 C-30 8.34 -30 7.68 -30 7 C-27.69 7 -25.38 7 -23 7 C-23 6.34 -23 5.68 -23 5 C-22.26394531 4.80664062 -21.52789062 4.61328125 -20.76953125 4.4140625 C-19.79371094 4.15367187 -18.81789063 3.89328125 -17.8125 3.625 C-16.84957031 3.36976563 -15.88664062 3.11453125 -14.89453125 2.8515625 C-12.00949445 2.05964168 -12.00949445 2.05964168 -9.375 0.90625 C-6.19703981 -0.3063927 -3.3681016 -0.13208242 0 0 Z " fill="#3C363B" transform="translate(349,456)"/>
<path d="M0 0 C3.63 0 7.26 0 11 0 C11 0.33 11 0.66 11 1 C12.39572052 1.02736707 13.79160221 1.04655989 15.1875 1.0625 C16.35345703 1.07990234 16.35345703 1.07990234 17.54296875 1.09765625 C20.01291263 1.06588278 20.01291263 1.06588278 22.4375 0.5 C25.28848418 -0.0562896 27.91062895 -0.0974623 30.8125 -0.0625 C31.78832031 -0.05347656 32.76414062 -0.04445313 33.76953125 -0.03515625 C34.87361328 -0.01775391 34.87361328 -0.01775391 36 0 C36 0.33 36 0.66 36 1 C16.24584205 4.09912242 -3.06576155 4.34834452 -23 4 C-23 3.67 -23 3.34 -23 3 C-15.08 2.67 -7.16 2.34 1 2 C0.67 1.34 0.34 0.68 0 0 Z " fill="#6E747D" transform="translate(268,509)"/>
<path d="M0 0 C0.66 0.66 1.32 1.32 2 2 C1.71412616 5.79803812 -0.44704969 8.08930473 -2.8125 10.9375 C-3.49957031 11.77152344 -4.18664062 12.60554688 -4.89453125 13.46484375 C-5.58933594 14.30144531 -6.28414063 15.13804687 -7 16 C-8.33642735 17.66418674 -9.6706778 19.33013233 -11 21 C-11.66 20.67 -12.32 20.34 -13 20 C-13 16.14167366 -11.93228347 15.54850307 -9.3125 12.8125 C-5.58840212 8.7775094 -2.75737054 4.73923062 0 0 Z M-16 23 C-15.67 23.66 -15.34 24.32 -15 25 C-15.99 25.33 -16.98 25.66 -18 26 C-18 25.34 -18 24.68 -18 24 C-17.34 23.67 -16.68 23.34 -16 23 Z M-20 26 C-19.34 26.33 -18.68 26.66 -18 27 C-18.99 27 -19.98 27 -21 27 C-20.67 26.67 -20.34 26.34 -20 26 Z " fill="#151215" transform="translate(335,297)"/>
<path d="M0 0 C0.99 0.33 1.98 0.66 3 1 C2.01 2.485 2.01 2.485 1 4 C0.34 4 -0.32 4 -1 4 C-1 4.66 -1 5.32 -1 6 C-1.66 6 -2.32 6 -3 6 C-3.226875 6.57234375 -3.45375 7.1446875 -3.6875 7.734375 C-5.35992245 10.62129471 -7.38140185 12.19470494 -10 14.25 C-10.886875 14.95640625 -11.77375 15.6628125 -12.6875 16.390625 C-15 18 -15 18 -17 18 C-16.73458339 14.52545527 -16.32716808 13.28984018 -13.671875 10.9375 C-12.22554688 9.9784375 -12.22554688 9.9784375 -10.75 9 C-6.73376731 6.24243061 -3.26554524 3.60336026 0 0 Z " fill="#130E12" transform="translate(331,316)"/>
<path d="M0 0 C4.33546254 1.47196595 7.73173622 3.77752018 11.3125 6.5625 C11.88137939 7.00287598 12.45025879 7.44325195 13.03637695 7.89697266 C19.04742325 12.6625022 24.77861157 17.92246681 28 25 C27.34 25.33 26.68 25.66 26 26 C25.41605469 25.18208984 25.41605469 25.18208984 24.8203125 24.34765625 C17.71302033 14.76755045 9.47757664 7.68464265 -1 2 C-0.67 1.34 -0.34 0.68 0 0 Z " fill="#281F21" transform="translate(305,182)"/>
<path d="M0 0 C1.32 0.66 2.64 1.32 4 2 C1.85086697 5.22369955 0.37676373 6.231219 -3 8 C-3.639375 8.12375 -4.27875 8.2475 -4.9375 8.375 C-8.2298646 9.37268624 -10.41002456 11.79576558 -13 14 C-13.99 14.33 -14.98 14.66 -16 15 C-16.66 14.34 -17.32 13.68 -18 13 C-16.29592618 11.72346071 -14.58652649 10.4540296 -12.875 9.1875 C-11.92367187 8.47980469 -10.97234375 7.77210937 -9.9921875 7.04296875 C-7 5 -7 5 -3.6953125 3.36328125 C-0.892574 2.28205805 -0.892574 2.28205805 0 0 Z " fill="#29252C" transform="translate(156,64)"/>
<path d="M0 0 C1.32 1.32 2.64 2.64 4 4 C-0.625 8.875 -0.625 8.875 -4 10 C-4.309375 10.804375 -4.61875 11.60875 -4.9375 12.4375 C-6 15 -6 15 -8.125 16.3125 C-9.053125 16.6528125 -9.053125 16.6528125 -10 17 C-10 12.01405953 -7.99555463 9.93372258 -5 6.25 C-4.52304687 5.64800781 -4.04609375 5.04601562 -3.5546875 4.42578125 C-2.37839461 2.94365221 -1.19031607 1.47089057 0 0 Z " fill="#3B343A" transform="translate(400,379)"/>
<path d="M0 0 C-1.64935547 0.07347656 -1.64935547 0.07347656 -3.33203125 0.1484375 C-10.92666156 0.52180288 -18.26856605 0.96689593 -25.703125 2.6953125 C-28.35885302 3.04760295 -30.41661459 2.65042682 -33 2 C-24.84289434 -2.55725622 -7.92548325 -5.2836555 0 0 Z " fill="#433D41" transform="translate(272,173)"/>
<path d="M0 0 C-4.51961342 4.77070305 -4.51961342 4.77070305 -6.98046875 5.9453125 C-9.30155598 7.15748572 -10.44146389 8.45965588 -12.0625 10.5 C-14.00872186 12.93664912 -15.33393182 14.22262121 -18 16 C-18.66 15.34 -19.32 14.68 -20 14 C-19.36191406 13.37351563 -18.72382813 12.74703125 -18.06640625 12.1015625 C-17.24011719 11.28429687 -16.41382813 10.46703125 -15.5625 9.625 C-14.73878906 8.81289062 -13.91507813 8.00078125 -13.06640625 7.1640625 C-10.96565328 5.17651485 -10.96565328 5.17651485 -10 3 C-8.4765625 1.89453125 -8.4765625 1.89453125 -6.625 0.8125 C-6.01914063 0.44769531 -5.41328125 0.08289063 -4.7890625 -0.29296875 C-3 -1 -3 -1 0 0 Z " fill="#262229" transform="translate(166,126)"/>
<path d="M0 0 C0.66 0.66 1.32 1.32 2 2 C-5.85413967 10.1637189 -13.49240158 17.75214961 -23 24 C-23.33 23.01 -23.66 22.02 -24 21 C-22 19 -22 19 -19.625 18.1875 C-16.38269034 16.72074087 -15.15706026 14.78330357 -13 12 C-11.66666667 11.33333333 -10.33333333 10.66666667 -9 10 C-7.65705519 8.34106818 -6.32255312 6.67523395 -5 5 C-4.34 5 -3.68 5 -3 5 C-2.690625 4.360625 -2.38125 3.72125 -2.0625 3.0625 C-1 1 -1 1 0 0 Z " fill="#3C363A" transform="translate(372,346)"/>
<path d="M0 0 C0.99 0 1.98 0 3 0 C2.82984375 0.53625 2.6596875 1.0725 2.484375 1.625 C-0.00319081 9.6698937 -2.00148519 17.82333536 -4 26 C-4.33 26 -4.66 26 -5 26 C-5.54960484 16.6160062 -3.56914072 8.64352775 0 0 Z " fill="#6D5F62" transform="translate(186,223)"/>
<path d="M0 0 C-3.00235362 3.17391668 -6.19753642 5.71252601 -9.75 8.25 C-10.73484375 8.95640625 -11.7196875 9.6628125 -12.734375 10.390625 C-13.48203125 10.92171875 -14.2296875 11.4528125 -15 12 C-15.66 11.67 -16.32 11.34 -17 11 C-16.67 10.01 -16.34 9.02 -16 8 C-15.01 8 -14.02 8 -13 8 C-12.7525 7.4225 -12.505 6.845 -12.25 6.25 C-9.35339767 1.0361158 -5.9734222 -1.85382068 0 0 Z " fill="#3B3D43" transform="translate(421,457)"/>
<path d="M0 0 C0 3 0 3 -1.6953125 4.76171875 C-6.71133414 8.73744008 -11.83299411 12.25182872 -17.375 15.4375 C-17.96941895 15.77934326 -18.56383789 16.12118652 -19.17626953 16.47338867 C-22.06502178 18.08402981 -24.72570871 19.42740226 -28 20 C-25.61223319 17.31277729 -23.13555845 15.91843151 -19.9375 14.3125 C-14.02815561 11.17756929 -9.11294871 7.27446158 -4 3 C-2.67350008 1.99095305 -1.34245115 0.98772602 0 0 Z " fill="#282228" transform="translate(327,318)"/>
<path d="M0 0 C0.66 0.66 1.32 1.32 2 2 C-0.99737087 3.44302773 -3.99835736 4.87838185 -7 6.3125 C-7.83917969 6.71662109 -8.67835938 7.12074219 -9.54296875 7.53710938 C-14.62233025 9.95866544 -19.70112203 12.10491517 -25 14 C-25 13.34 -25 12.68 -25 12 C-22.89915791 10.99303432 -20.79420511 9.9946411 -18.6875 9 C-17.51574219 8.443125 -16.34398437 7.88625 -15.13671875 7.3125 C-12 6 -12 6 -9 6 C-8.67 5.01 -8.34 4.02 -8 3 C-7.236875 2.87625 -6.47375 2.7525 -5.6875 2.625 C-2.79732864 2.11897208 -2.79732864 2.11897208 0 0 Z " fill="#3D363A" transform="translate(377,471)"/>
<path d="M0 0 C0 0.66 0 1.32 0 2 C-2.08201528 2.50546036 -4.16567067 3.00416835 -6.25 3.5 C-7.41015625 3.7784375 -8.5703125 4.056875 -9.765625 4.34375 C-13 5 -13 5 -17 5 C-16.67 4.01 -16.34 3.02 -16 2 C-13.671875 1.015625 -13.671875 1.015625 -10.75 0.25 C-9.79609375 -0.01296875 -8.8421875 -0.2759375 -7.859375 -0.546875 C-4.89598234 -1.01648367 -2.87544255 -0.77657937 0 0 Z " fill="#070509" transform="translate(252,170)"/>
<path d="M0 0 C-2.3522106 1.58630419 -4.70667079 3.16908539 -7.0625 4.75 C-7.71927734 5.1934375 -8.37605469 5.636875 -9.05273438 6.09375 C-13.27314244 8.9212155 -17.47934125 11.67476728 -22 14 C-22.66 13.67 -23.32 13.34 -24 13 C-20.07359784 8.66029235 -15.53534043 6.67347501 -10 5 C-10 4.34 -10 3.68 -10 3 C-3.375 -1.125 -3.375 -1.125 0 0 Z " fill="#4C444A" transform="translate(403,458)"/>
<path d="M0 0 C1.35303489 2.70606979 0.7884698 4.1328371 0 7 C-0.66 7.66 -1.32 8.32 -2 9 C-2.99 9 -3.98 9 -5 9 C-5.28875 9.61875 -5.5775 10.2375 -5.875 10.875 C-7 13 -7 13 -9 15 C-9.99 14.67 -10.98 14.34 -12 14 C-8.04 9.38 -4.08 4.76 0 0 Z " fill="#323947" transform="translate(73,83)"/>
<path d="M0 0 C0.99 0.33 1.98 0.66 3 1 C2.67 1.99 2.34 2.98 2 4 C-0.87109375 5.421875 -0.87109375 5.421875 -4.4375 6.75 C-5.61183594 7.19859375 -6.78617187 7.6471875 -7.99609375 8.109375 C-11 9 -11 9 -13 8 C-10.07602206 4.64284014 -8.31511783 3.75514562 -4 3 C-3.29875 2.46375 -2.5975 1.9275 -1.875 1.375 C-1.25625 0.92125 -0.6375 0.4675 0 0 Z " fill="#383137" transform="translate(325,402)"/>
<path d="M0 0 C0.99 0.66 1.98 1.32 3 2 C2.14277344 2.32613281 1.28554688 2.65226562 0.40234375 2.98828125 C-0.74105469 3.42527344 -1.88445312 3.86226563 -3.0625 4.3125 C-4.2484375 4.76496094 -5.434375 5.21742188 -6.65625 5.68359375 C-9.1773348 6.67612363 -11.61506298 7.72105491 -14.0625 8.875 C-17.19914811 10.07626949 -17.94922309 9.95787834 -21 9 C-20.23816406 8.68546875 -19.47632813 8.3709375 -18.69140625 8.046875 C-17.65886719 7.61890625 -16.62632812 7.1909375 -15.5625 6.75 C-14.47195313 6.30011719 -13.38140625 5.85023438 -12.2578125 5.38671875 C-8.72087238 3.88118669 -5.27113161 2.23552452 -1.83984375 0.50390625 C-1.23269531 0.33761719 -0.62554687 0.17132813 0 0 Z " fill="#2C262B" transform="translate(317,362)"/>
<path d="M0 0 C0.33 0.99 0.66 1.98 1 3 C-0.78809697 4.17213045 -2.58059125 5.33755526 -4.375 6.5 C-5.37273437 7.1496875 -6.37046875 7.799375 -7.3984375 8.46875 C-10 10 -10 10 -12 10 C-11.64880827 7.16582109 -11.21508776 6.18351911 -9.00390625 4.296875 C-8.19824219 3.78640625 -7.39257812 3.2759375 -6.5625 2.75 C-5.35787109 1.96882813 -5.35787109 1.96882813 -4.12890625 1.171875 C-2 0 -2 0 0 0 Z " fill="#4D4F54" transform="translate(402,468)"/>
<path d="M0 0 C0.33 0.66 0.66 1.32 1 2 C1.66 2.33 2.32 2.66 3 3 C-1.1832367 6.77511605 -4.74597851 8.97922251 -10 11 C-10.99 11.495 -10.99 11.495 -12 12 C-10.84826645 9.53199953 -9.95216435 7.95216435 -8 6 C-7.01 6 -6.02 6 -5 6 C-5 5.34 -5 4.68 -5 4 C-4.34 3.67 -3.68 3.34 -3 3 C-1.9805881 2.01979625 -0.97753644 1.02196992 0 0 Z " fill="#453E45" transform="translate(383,407)"/>
<path d="M0 0 C0.33 0.66 0.66 1.32 1 2 C-0.07826365 3.27513763 -1.16285519 4.54492569 -2.25 5.8125 C-2.85328125 6.52019531 -3.4565625 7.22789063 -4.078125 7.95703125 C-5.92370398 9.91889671 -7.79945332 11.45669625 -10 13 C-10.66 12.34 -11.32 11.68 -12 11 C-10.75323147 9.72599623 -9.5024352 8.45593346 -8.25 7.1875 C-7.55390625 6.47980469 -6.8578125 5.77210937 -6.140625 5.04296875 C-4.18571355 3.17724121 -2.19661447 1.56830358 0 0 Z " fill="#252128" transform="translate(137,105)"/>
<path d="M0 0 C0.66 0.66 1.32 1.32 2 2 C-2.62 6.62 -7.24 11.24 -12 16 C-12.33 15.01 -12.66 14.02 -13 13 C-11.71034824 11.62437146 -10.37310707 10.29233607 -9 9 C-8.34 9 -7.68 9 -7 9 C-6.731875 8.401875 -6.46375 7.80375 -6.1875 7.1875 C-5.00082594 5.00152146 -3.90400887 3.58667406 -2 2 C-1.34 2 -0.68 2 0 2 C0 1.34 0 0.68 0 0 Z " fill="#363035" transform="translate(407,385)"/>
<path d="M0 0 C0.99 0.66 1.98 1.32 3 2 C2.54625 2.556875 2.0925 3.11375 1.625 3.6875 C-0.09233474 5.93627323 -0.09233474 5.93627323 -1 8.5625 C-2.02855617 11.06960565 -2.85346485 12.36863329 -5 14 C-5.99 14 -6.98 14 -8 14 C-6.46162154 10.80375738 -4.71133468 7.78394426 -2.875 4.75 C-2.33617187 3.85796875 -1.79734375 2.9659375 -1.2421875 2.046875 C-0.62730469 1.03367187 -0.62730469 1.03367187 0 0 Z " fill="#393D4A" transform="translate(50,112)"/>
<path d="M0 0 C2.08429193 0.78913943 4.16739869 1.58140963 6.25 2.375 C7.41015625 2.81585938 8.5703125 3.25671875 9.765625 3.7109375 C12.26209781 4.70590855 14.62904947 5.74410046 17 7 C17 7.66 17 8.32 17 9 C11 7 5 5 -1 3 C-0.67 2.01 -0.34 1.02 0 0 Z " fill="#312628" transform="translate(288,174)"/>
<path d="M0 0 C1.125 1.6875 1.125 1.6875 2 4 C0.9163987 8.5752055 -1.95755903 11.55723785 -5 15 C-5.33 13.68 -5.66 12.36 -6 11 C-5.01 10.34 -4.02 9.68 -3 9 C-3.33 8.01 -3.66 7.02 -4 6 C-2.0625 2.8125 -2.0625 2.8125 0 0 Z " fill="#1D1C25" transform="translate(55,105)"/>
<path d="M0 0 C2.125 0.375 2.125 0.375 4 1 C2.85814266 5.47959418 1.56984833 9.14522751 -1 13 C-1.66 12.67 -2.32 12.34 -3 12 C-2.34 11.34 -1.68 10.68 -1 10 C-1.3185177 7.89179203 -1.3185177 7.89179203 -2 6 C-1.34 6 -0.68 6 0 6 C0 5.01 0 4.02 0 3 C-0.66 2.67 -1.32 2.34 -2 2 C-1.34 1.34 -0.68 0.68 0 0 Z " fill="#121016" transform="translate(110,51)"/>
<path d="M0 0 C1.32 0 2.64 0 4 0 C3.44449305 3.59905908 2.25112752 4.99909799 -0.5625 7.25 C-1.20316406 7.77078125 -1.84382813 8.2915625 -2.50390625 8.828125 C-2.99761719 9.21484375 -3.49132812 9.6015625 -4 10 C-4.578125 8.140625 -4.578125 8.140625 -5 6 C-3.75 3.75 -3.75 3.75 -2 2 C-1.01 2 -0.02 2 1 2 C0.67 1.34 0.34 0.68 0 0 Z " fill="#3E4045" transform="translate(438,436)"/>
<path d="M0 0 C0 0.66 0 1.32 0 2 C-0.99 2.66 -1.98 3.32 -3 4 C-2.34 4 -1.68 4 -1 4 C-1.33 4.99 -1.66 5.98 -2 7 C-5.63 7 -9.26 7 -13 7 C-11.68 6.01 -10.36 5.02 -9 4 C-8.34 3.34 -7.68 2.68 -7 2 C-2.55555556 0 -2.55555556 0 0 0 Z " fill="#353035" transform="translate(353,428)"/>
<path d="M0 0 C-1.58667578 3.90285767 -4.13350481 6.33520982 -7.125 9.25 C-8.03507812 10.14203125 -8.94515625 11.0340625 -9.8828125 11.953125 C-10.58148438 12.62859375 -11.28015625 13.3040625 -12 14 C-12.66 13.67 -13.32 13.34 -14 13 C-2.80645161 0 -2.80645161 0 0 0 Z " fill="#50494D" transform="translate(384,364)"/>
<path d="M0 0 C0 3 0 3 -1.57421875 4.97265625 C-2.62029297 6.00712891 -2.62029297 6.00712891 -3.6875 7.0625 C-4.37199219 7.75472656 -5.05648438 8.44695312 -5.76171875 9.16015625 C-9.14591799 11.94193259 -12.77274657 13.06061035 -17 14 C-14.19638653 11.04026885 -11.31470436 8.71443869 -7.9375 6.4375 C-5.02117978 4.46843567 -2.39627154 2.58483062 0 0 Z " fill="#393239" transform="translate(335,335)"/>
<path d="M0 0 C0.33 0.66 0.66 1.32 1 2 C-0.98 4.31 -2.96 6.62 -5 9 C-5.99 8.34 -6.98 7.68 -8 7 C-3.375 1.125 -3.375 1.125 0 0 Z M-10 12 C-9.67 12.66 -9.34 13.32 -9 14 C-9.66 13.67 -10.32 13.34 -11 13 C-10.67 12.67 -10.34 12.34 -10 12 Z " fill="#262229" transform="translate(178,142)"/>
<path d="M0 0 C0.66 0.33 1.32 0.66 2 1 C0.60506348 5.43843439 -1.51898201 7.9434964 -5 11 C-5.99 11.33 -6.98 11.66 -8 12 C-6.59023295 8.96147295 -4.91129772 6.4060405 -2.875 3.75 C-2.06675781 2.69039063 -2.06675781 2.69039063 -1.2421875 1.609375 C-0.83226562 1.07828125 -0.42234375 0.5471875 0 0 Z " fill="#151012" transform="translate(341,303)"/>
<path d="M0 0 C-5.28571429 6.42857143 -5.28571429 6.42857143 -8 9 C-8.33 6.36 -8.66 3.72 -9 1 C-5.57367167 -0.61798838 -3.61944899 -1.34053666 0 0 Z " fill="#332D32" transform="translate(395,317)"/>
<path d="M0 0 C0.66 0.33 1.32 0.66 2 1 C1.375 2.875 1.375 2.875 0 5 C-3 6.125 -3 6.125 -6 7 C-6.66 7.66 -7.32 8.32 -8 9 C-8.99 9 -9.98 9 -11 9 C-11 8.34 -11 7.68 -11 7 C-9.35 6.34 -7.7 5.68 -6 5 C-6 4.34 -6 3.68 -6 3 C-4.03533587 1.93224776 -2.03144641 0.93446535 0 0 Z " fill="#262128" transform="translate(177,115)"/>
<path d="M0 0 C-1.40019875 4.20059624 -4.36825877 5.19051525 -8.0625 7.1875 C-8.72572266 7.55552734 -9.38894531 7.92355469 -10.07226562 8.30273438 C-11.71027457 9.21012062 -13.35456221 10.10615573 -15 11 C-15.33 10.34 -15.66 9.68 -16 9 C-14.4840625 8.1646875 -14.4840625 8.1646875 -12.9375 7.3125 C-10.22227346 5.77276788 -7.69929375 4.10218405 -5.1875 2.25 C-2 0 -2 0 0 0 Z " fill="#2E292E" transform="translate(370,418)"/>
<path d="M0 0 C0 4.07546013 -1.55304448 5.80536362 -4 9 C-6 10.125 -6 10.125 -8 11 C-9.37086915 12.29470975 -10.71340837 13.62150897 -12 15 C-12.66 14.67 -13.32 14.34 -14 14 C-9.38 9.38 -4.76 4.76 0 0 Z " fill="#534D53" transform="translate(407,388)"/>
<path d="M0 0 C1.70741418 3.41482836 0.77508783 6.4152188 0 10 C-0.99 9.01 -1.98 8.02 -3 7 C-3.99 7.99 -4.98 8.98 -6 10 C-5.44739574 6.68437443 -4.83174295 3.84937793 -3 1 C-2.01 0.67 -1.02 0.34 0 0 Z " fill="#312B31" transform="translate(419,301)"/>
<path d="M0 0 C0.99 0.33 1.98 0.66 3 1 C2.34 1 1.68 1 1 1 C1 1.66 1 2.32 1 3 C0.01 3.33 -0.98 3.66 -2 4 C-1.34 2.68 -0.68 1.36 0 0 Z M-3 4 C-3 4.99 -3 5.98 -3 7 C-3.99 6.67 -4.98 6.34 -6 6 C-5.01 5.34 -4.02 4.68 -3 4 Z M-7 7 C-7 10 -7 10 -9.5 12.6875 C-10.325 13.450625 -11.15 14.21375 -12 15 C-12.66 14.67 -13.32 14.34 -14 14 C-11.66666667 11.66666667 -9.33333333 9.33333333 -7 7 Z " fill="#29242A" transform="translate(191,158)"/>
<path d="M0 0 C0 0.99 0 1.98 0 3 C-0.66 3 -1.32 3 -2 3 C-2.33 3.99 -2.66 4.98 -3 6 C-3.99 6 -4.98 6 -6 6 C-6 5.01 -6 4.02 -6 3 C-6.66 2.67 -7.32 2.34 -8 2 C-7.34 2 -6.68 2 -6 2 C-6 1.34 -6 0.68 -6 0 C-2.25 -1.125 -2.25 -1.125 0 0 Z " fill="#313237" transform="translate(434,444)"/>
<path d="M0 0 C4.05819183 0.65503282 7.53971282 1.94559121 11.3125 3.5625 C12.38113281 4.01753906 13.44976562 4.47257812 14.55078125 4.94140625 C15.76314453 5.46541016 15.76314453 5.46541016 17 6 C17 6.33 17 6.66 17 7 C15.02 7 13.04 7 11 7 C11 6.34 11 5.68 11 5 C8.69 4.67 6.38 4.34 4 4 C4 3.34 4 2.68 4 2 C2.68 1.67 1.36 1.34 0 1 C0 0.67 0 0.34 0 0 Z " fill="#566675" transform="translate(351,17)"/>
<path d="M0 0 C1.485 0.99 1.485 0.99 3 2 C3.40564287 6.94884301 3.25552839 10.48894322 1 15 C0.67 15 0.34 15 0 15 C0 10.05 0 5.1 0 0 Z " fill="#59464A" transform="translate(180,243)"/>
<path d="M0 0 C0.66 0.33 1.32 0.66 2 1 C0.68206814 6.66710699 -1.48709197 8.66437233 -6 12 C-6 7.72159739 -3.71595568 6.17965543 -1 3 C-0.67 2.01 -0.34 1.02 0 0 Z " fill="#26232A" transform="translate(143,141)"/>
<path d="M0 0 C0.99 0.99 1.98 1.98 3 3 C2.3125 5.375 2.3125 5.375 1 8 C-1.625 9.3125 -1.625 9.3125 -4 10 C-3.43454163 6.04179141 -2.19097652 3.3340947 0 0 Z " fill="#303441" transform="translate(39,130)"/>
<path d="M0 0 C0.33 0.66 0.66 1.32 1 2 C-1.43407005 2.86524753 -3.87143184 3.71742865 -6.3125 4.5625 C-7.00279297 4.80935547 -7.69308594 5.05621094 -8.40429688 5.31054688 C-13.66015625 7.11328125 -13.66015625 7.11328125 -17 6 C-12.3825444 3.92685667 -7.90208495 2.3197921 -3 1 C-2.01 0.67 -1.02 0.34 0 0 Z " fill="#393337" transform="translate(341,487)"/>
<path d="M0 0 C1.65 0.33 3.3 0.66 5 1 C1.81516089 3.63886669 -1.2898821 6.14494105 -5 8 C-5.99 7.67 -6.98 7.34 -8 7 C-6.02579865 4.47740939 -5.03254358 4.0070192 -1.8125 3.3125 C-0.4203125 3.1578125 -0.4203125 3.1578125 1 3 C0.67 2.01 0.34 1.02 0 0 Z " fill="#676A71" transform="translate(385,477)"/>
<path d="M0 0 C2.31 0 4.62 0 7 0 C4.66828982 2.33171018 3.1450503 2.68938284 0 3.5625 C-3.58766099 4.55461173 -3.58766099 4.55461173 -7 6 C-7.66 5.34 -8.32 4.68 -9 4 C-8.34 4 -7.68 4 -7 4 C-7 3.34 -7 2.68 -7 2 C-4.69 2 -2.38 2 0 2 C0 1.34 0 0.68 0 0 Z " fill="#322D31" transform="translate(326,461)"/>
<path d="M0 0 C0.66 0.66 1.32 1.32 2 2 C1.071875 3.3303125 1.071875 3.3303125 0.125 4.6875 C-2.02899881 7.81593129 -2.02899881 7.81593129 -3.125 10.8125 C-4 13 -4 13 -6 14 C-5.41162314 9.29298514 -3.44104424 3.44104424 0 0 Z " fill="#918486" transform="translate(193,210)"/>
<path d="M0 0 C0 0.66 0 1.32 0 2 C-3.36683915 4.43160605 -4.73350364 5 -9 5 C-8.00233891 2.50584728 -7.31383315 1.21259665 -5.0625 -0.3125 C-3 -1 -3 -1 0 0 Z " fill="#0B080B" transform="translate(233,175)"/>
<path d="M0 0 C0 0.66 0 1.32 0 2 C0.66 2.33 1.32 2.66 2 3 C1.67 3.66 1.34 4.32 1 5 C-2.0625 5.625 -2.0625 5.625 -5 6 C-5.33 5.01 -5.66 4.02 -6 3 C-4.60722783 0.21445565 -3.01148006 0 0 0 Z " fill="#3A383D" transform="translate(354,491)"/>
<path d="M0 0 C2.35171131 0.59861742 4.6859378 1.26924352 7 2 C7.33 2.66 7.66 3.32 8 4 C8.639375 4.12375 9.27875 4.2475 9.9375 4.375 C12 5 12 5 13.25 7.0625 C13.4975 7.701875 13.745 8.34125 14 9 C10.40241608 7.67726488 7.36262865 6.0805802 4.1875 3.9375 C3.39730469 3.41027344 2.60710937 2.88304687 1.79296875 2.33984375 C1.20128906 1.89769531 0.60960938 1.45554687 0 1 C0 0.67 0 0.34 0 0 Z " fill="#5F606A" transform="translate(121,470)"/>
<path d="M0 0 C0.33 0.99 0.66 1.98 1 3 C-1.55991624 5.01136276 -4.04590299 6.62845496 -7 8 C-7.125 5.625 -7.125 5.625 -7 3 C-6.34 2.34 -5.68 1.68 -5 1 C-4.01 1.33 -3.02 1.66 -2 2 C-1.34 1.34 -0.68 0.68 0 0 Z " fill="#4F494D" transform="translate(403,341)"/>
<path d="M0 0 C0 3.97378549 -1.34753657 5.12649795 -4 8 C-6.25 9.3125 -6.25 9.3125 -8 10 C-7.690625 9.236875 -7.38125 8.47375 -7.0625 7.6875 C-6.32106407 5.81210323 -5.63771783 3.91315348 -5 2 C-2.4375 0.8125 -2.4375 0.8125 0 0 Z " fill="#28232A" transform="translate(133,158)"/>
<path d="M0 0 C0.33 0.66 0.66 1.32 1 2 C-1.50123051 6.16871752 -3.49415979 8.98422938 -8 11 C-8.66 10.67 -9.32 10.34 -10 10 C-6.7 6.7 -3.4 3.4 0 0 Z " fill="#2E3848" transform="translate(87,69)"/>
<path d="M0 0 C0.66 0.33 1.32 0.66 2 1 C1.36191406 1.39832031 0.72382813 1.79664063 0.06640625 2.20703125 C-1.17302734 3.00173828 -1.17302734 3.00173828 -2.4375 3.8125 C-3.26121094 4.33457031 -4.08492188 4.85664063 -4.93359375 5.39453125 C-7.27827786 6.90960713 -7.27827786 6.90960713 -8 10 C-9.32 9.34 -10.64 8.68 -12 8 C-10.37615858 6.85252535 -8.75088944 5.7070709 -7.125 4.5625 C-6.22007812 3.92441406 -5.31515625 3.28632813 -4.3828125 2.62890625 C-2 1 -2 1 0 0 Z " fill="#110E10" transform="translate(398,468)"/>
<path d="M0 0 C2.9375 0.8125 2.9375 0.8125 6 2 C6.33 2.99 6.66 3.98 7 5 C9.01508358 5.73323796 9.01508358 5.73323796 11 6 C10.67 6.99 10.34 7.98 10 9 C8.33043913 7.69118353 6.66441696 6.37785174 5 5.0625 C4.071875 4.33160156 3.14375 3.60070312 2.1875 2.84765625 C1.465625 2.23792969 0.74375 1.62820313 0 1 C0 0.67 0 0.34 0 0 Z " fill="#5D5B65" transform="translate(94,450)"/>
<path d="M0 0 C1.96875 0.875 1.96875 0.875 4 2 C4.33333333 3.33333333 4.66666667 4.66666667 5 6 C6.9837767 7.28436734 6.9837767 7.28436734 9 8 C8.67 8.66 8.34 9.32 8 10 C8.66 10.33 9.32 10.66 10 11 C9.01 11 8.02 11 7 11 C5.17578125 8.59375 5.17578125 8.59375 3.3125 5.5 C2.37857422 3.96859375 2.37857422 3.96859375 1.42578125 2.40625 C0.95527344 1.6121875 0.48476563 0.818125 0 0 Z " fill="#5F5F69" transform="translate(47,397)"/>
<path d="M0 0 C4.875 1.875 4.875 1.875 6 3 C6.04092937 5.33297433 6.04241723 7.66705225 6 10 C3.25722422 6.80009492 1.3697164 3.99500618 0 0 Z " fill="#51515A" transform="translate(40,385)"/>
<path d="M0 0 C0 0.99 0 1.98 0 3 C-1.45381897 3.69699552 -2.91322953 4.38233866 -4.375 5.0625 C-5.18710937 5.44535156 -5.99921875 5.82820313 -6.8359375 6.22265625 C-7.55007813 6.47917969 -8.26421875 6.73570312 -9 7 C-9.66 6.67 -10.32 6.34 -11 6 C-9.54550599 4.9944239 -8.08627557 3.99569565 -6.625 3 C-5.40683594 2.1646875 -5.40683594 2.1646875 -4.1640625 1.3125 C-2 0 -2 0 0 0 Z " fill="#3E383D" transform="translate(375,426)"/>
<path d="M0 0 C0.66 0.33 1.32 0.66 2 1 C-0.64 4.3 -3.28 7.6 -6 11 C-6.33 9.68 -6.66 8.36 -7 7 C-4.6875 4.375 -4.6875 4.375 -2 2 C-1.34 1.34 -0.68 0.68 0 0 Z " fill="#4C464B" transform="translate(390,412)"/>
<path d="M0 0 C0.66 0.99 1.32 1.98 2 3 C-0.64 5.97 -3.28 8.94 -6 12 C-6 8.88261767 -5.65281226 8.01916816 -4.125 5.4375 C-3.77695312 4.83808594 -3.42890625 4.23867188 -3.0703125 3.62109375 C-2 2 -2 2 0 0 Z " fill="#413C3F" transform="translate(384,329)"/>
<path d="M0 0 C0.99 0 1.98 0 3 0 C5.09350689 3.4019487 5.17942163 6.05272412 5 10 C4.34 10 3.68 10 3 10 C2.01 6.7 1.02 3.4 0 0 Z " fill="#100F12" transform="translate(340,221)"/>
<path d="M0 0 C0.66 0.66 1.32 1.32 2 2 C0.40233897 2.86627399 -1.20339944 3.71766465 -2.8125 4.5625 C-3.70582031 5.03816406 -4.59914063 5.51382812 -5.51953125 6.00390625 C-8 7 -8 7 -11 6 C-10.34 6 -9.68 6 -9 6 C-8.67 5.01 -8.34 4.02 -8 3 C-7.236875 2.87625 -6.47375 2.7525 -5.6875 2.625 C-2.79732864 2.11897208 -2.79732864 2.11897208 0 0 Z " fill="#443D43" transform="translate(377,471)"/>
<path d="M0 0 C1 3 1 3 1 7 C0.34 7 -0.32 7 -1 7 C-1.33 7.99 -1.66 8.98 -2 10 C-2.99 8.68 -3.98 7.36 -5 6 C-3.35 4.02 -1.7 2.04 0 0 Z " fill="#322C31" transform="translate(357,332)"/>
<path d="M0 0 C0.66 0 1.32 0 2 0 C1.5206753 4.31392226 0.2542015 6.16569547 -3 9 C-3 5.30581799 -1.71820705 3.22163822 0 0 Z " fill="#353035" transform="translate(408,330)"/>
<path d="M0 0 C1.66832577 2.50248865 2.62381674 4.41149187 3.625 7.1875 C3.88539063 7.90292969 4.14578125 8.61835938 4.4140625 9.35546875 C4.60742188 9.89816406 4.80078125 10.44085938 5 11 C4.01 11 3.02 11 2 11 C1.46770674 9.73392393 0.94955456 8.46189588 0.4375 7.1875 C0.14746094 6.47980469 -0.14257812 5.77210938 -0.44140625 5.04296875 C-1 3 -1 3 0 0 Z " fill="#2E1B1E" transform="translate(186,281)"/>
<path d="M0 0 C0.66 0 1.32 0 2 0 C1.84660156 0.50015625 1.69320313 1.0003125 1.53515625 1.515625 C0.80542604 4.90327766 0.63643523 8.29961519 0.4375 11.75 C0.39431641 12.44738281 0.35113281 13.14476562 0.30664062 13.86328125 C0.20110404 15.57531922 0.1001009 17.28763561 0 19 C-0.33 19 -0.66 19 -1 19 C-1.02683987 16.02077407 -1.04676037 13.04178705 -1.0625 10.0625 C-1.07087891 9.21236328 -1.07925781 8.36222656 -1.08789062 7.48632812 C-1.09111328 6.67744141 -1.09433594 5.86855469 -1.09765625 5.03515625 C-1.10289307 4.2862915 -1.10812988 3.53742676 -1.11352539 2.76586914 C-1 1 -1 1 0 0 Z " fill="#060C11" transform="translate(348,245)"/>
<path d="M0 0 C0.66 0.66 1.32 1.32 2 2 C0.8803014 3.00593243 -0.2459412 4.0045849 -1.375 5 C-2.00148438 5.556875 -2.62796875 6.11375 -3.2734375 6.6875 C-5 8 -5 8 -7 8 C-5.50902342 4.2047869 -3.24299151 2.38957269 0 0 Z " fill="#261B1E" transform="translate(415,448)"/>
<path d="M0 0 C0.99 0 1.98 0 3 0 C3 0.99 3 1.98 3 3 C4.32 3.33 5.64 3.66 7 4 C7.33 5.65 7.66 7.3 8 9 C6 7.625 6 7.625 4 6 C4 5.34 4 4.68 4 4 C2.68 3.34 1.36 2.68 0 2 C0 1.34 0 0.68 0 0 Z " fill="#666770" transform="translate(69,425)"/>
<path d="M0 0 C-2.64 1.98 -5.28 3.96 -8 6 C-8.33 5.34 -8.66 4.68 -9 4 C-8.67 3.34 -8.34 2.68 -8 2 C-7.34 2 -6.68 2 -6 2 C-6 1.34 -6 0.68 -6 0 C-3 -1 -3 -1 0 0 Z " fill="#363136" transform="translate(394,402)"/>
<path d="M0 0 C0.66 0.33 1.32 0.66 2 1 C-0.31 4.3 -2.62 7.6 -5 11 C-5.66 10.34 -6.32 9.68 -7 9 C-4.69 6.03 -2.38 3.06 0 0 Z " fill="#393337" transform="translate(416,374)"/>
<path d="M0 0 C0.33 0.66 0.66 1.32 1 2 C-1.4 8.4 -1.4 8.4 -4 11 C-4.8125 8.3125 -4.8125 8.3125 -5 5 C-2.5625 2.125 -2.5625 2.125 0 0 Z " fill="#322C31" transform="translate(372,307)"/>
<path d="M0 0 C2.61500768 2.36595933 4.38999603 4.86049226 6 8 C5.67 8.66 5.34 9.32 5 10 C0.07692308 5.69230769 0.07692308 5.69230769 -0.3125 2.1875 C-0.209375 1.465625 -0.10625 0.74375 0 0 Z " fill="#131114" transform="translate(336,210)"/>
<path d="M0 0 C3.91211733 1.15585285 6.8745041 2.35534962 10 5 C9.01 5.33 8.02 5.66 7 6 C7 5.34 7 4.68 7 4 C5.02 4.33 3.04 4.66 1 5 C0.67 3.35 0.34 1.7 0 0 Z " fill="#4B535E" transform="translate(368,24)"/>
<path d="M0 0 C2.75 0.125 2.75 0.125 6 1 C8.375 4.0625 8.375 4.0625 10 7 C6.42032008 5.34784004 3.22017048 3.26875648 0 1 C0 0.67 0 0.34 0 0 Z " fill="#51505A" transform="translate(105,459)"/>
<path d="M0 0 C0.66 0 1.32 0 2 0 C0.73058503 3.91402949 -0.51167694 5.79072873 -4 8 C-4.66 7.67 -5.32 7.34 -6 7 C-5.67 6.01 -5.34 5.02 -5 4 C-4.01 4 -3.02 4 -2 4 C-1.34 2.68 -0.68 1.36 0 0 Z " fill="#45484F" transform="translate(410,461)"/>
<path d="M0 0 C1.32 0 2.64 0 4 0 C4.33 0.99 4.66 1.98 5 3 C7.00016466 4.20882096 7.00016466 4.20882096 9 5 C8.67 5.99 8.34 6.98 8 8 C5.95880212 6.38405168 3.95927063 4.7143618 2 3 C2 2.34 2 1.68 2 1 C1.34 0.67 0.68 0.34 0 0 Z " fill="#696771" transform="translate(85,442)"/>
<path d="M0 0 C0.66 0 1.32 0 2 0 C0.50164772 4.66154042 -2.88463591 5.86610751 -7 8 C-5.84826645 5.53199953 -4.95216435 3.95216435 -3 2 C-2.01 2 -1.02 2 0 2 C0 1.34 0 0.68 0 0 Z " fill="#312C32" transform="translate(378,411)"/>
<path d="M0 0 C-1.65519326 3.31038651 -4.65442221 3.78867011 -8 5 C-8.99 4.67 -9.98 4.34 -11 4 C-7.26280719 0.48264206 -5.13496308 -0.47767098 0 0 Z " fill="#2F292E" transform="translate(326,383)"/>
<path d="M0 0 C0.99 0.33 1.98 0.66 3 1 C3 5.62 3 10.24 3 15 C2.67 15 2.34 15 2 15 C1.34 10.05 0.68 5.1 0 0 Z " fill="#151014" transform="translate(177,242)"/>
<path d="M0 0 C0.33 0.99 0.66 1.98 1 3 C-0.98 4.98 -2.96 6.96 -5 9 C-5.66 8.67 -6.32 8.34 -7 8 C-4.69 5.36 -2.38 2.72 0 0 Z " fill="#564F54" transform="translate(441,421)"/>
<path d="M0 0 C0.99 0 1.98 0 3 0 C1.375 6.75 1.375 6.75 -2 9 C-1.51421457 5.87709365 -1.0013988 3.00419641 0 0 Z " fill="#7F6D6F" transform="translate(186,223)"/>
<path d="M0 0 C0.99 0.33 1.98 0.66 3 1 C-0.465 3.97 -0.465 3.97 -4 7 C-4.66 6.67 -5.32 6.34 -6 6 C-4.02 4.02 -2.04 2.04 0 0 Z " fill="#B71B1D" transform="translate(207,196)"/>
<path d="M0 0 C-1.23884319 0.72767003 -2.49168341 1.43154815 -3.75 2.125 C-4.79414063 2.71667969 -4.79414063 2.71667969 -5.859375 3.3203125 C-8 4 -8 4 -10.265625 3.1171875 C-10.83796875 2.74851563 -11.4103125 2.37984375 -12 2 C-10.56656 1.46809459 -9.12804633 0.94984742 -7.6875 0.4375 C-6.48673828 0.00244141 -6.48673828 0.00244141 -5.26171875 -0.44140625 C-3 -1 -3 -1 0 0 Z " fill="#928887" transform="translate(241,176)"/>
<path d="M0 0 C-3.48152976 2.32101984 -5.86169011 2.69903201 -10 3 C-10.66 2.34 -11.32 1.68 -12 1 C-8.0186217 -0.3271261 -4.14954773 -0.06915913 0 0 Z " fill="#636063" transform="translate(251,173)"/>
<path d="M0 0 C0.99 0.66 1.98 1.32 3 2 C1.38405168 4.04119788 -0.2856382 6.04072937 -2 8 C-2.66 8 -3.32 8 -4 8 C-2.87548273 5.0280615 -1.77706209 2.66559313 0 0 Z " fill="#434A59" transform="translate(50,112)"/>
<path d="M0 0 C0.66 0.33 1.32 0.66 2 1 C-1.32307692 5.8 -1.32307692 5.8 -4.75 6.8125 C-5.4925 6.874375 -6.235 6.93625 -7 7 C-6.67 6.34 -6.34 5.68 -6 5 C-5.34 5 -4.68 5 -4 5 C-4 4.34 -4 3.68 -4 3 C-2 1.375 -2 1.375 0 0 Z " fill="#3E495A" transform="translate(104,54)"/>
<path d="M0 0 C0.66 0.66 1.32 1.32 2 2 C-1.465 4.97 -1.465 4.97 -5 8 C-5 7.01 -5 6.02 -5 5 C-4.34 5 -3.68 5 -3 5 C-2.5359375 4.0409375 -2.5359375 4.0409375 -2.0625 3.0625 C-1 1 -1 1 0 0 Z " fill="#423C41" transform="translate(372,346)"/>
<path d="M0 0 C0.75 1.625 0.75 1.625 1 4 C-0.9375 7.25 -0.9375 7.25 -3 10 C-3.66 9.01 -4.32 8.02 -5 7 C-4.34 7 -3.68 7 -3 7 C-2.690625 6.21625 -2.38125 5.4325 -2.0625 4.625 C-1 2 -1 2 0 0 Z " fill="#423D41" transform="translate(441,336)"/>
<path d="M0 0 C-2 2 -2 2 -5 3 C-5.66 2.67 -6.32 2.34 -7 2 C-7 2.66 -7 3.32 -7 4 C-7.66 3.67 -8.32 3.34 -9 3 C-8.67 2.01 -8.34 1.02 -8 0 C-4.71303767 -0.79953138 -3.28976808 -1.09658936 0 0 Z " fill="#231F25" transform="translate(192,52)"/>
<path d="M0 0 C2.31 0 4.62 0 7 0 C6.67 0.66 6.34 1.32 6 2 C4.1875 2.5625 4.1875 2.5625 2 3 C0.88625 3.2784375 0.88625 3.2784375 -0.25 3.5625 C-0.8275 3.706875 -1.405 3.85125 -2 4 C-1.34 2.68 -0.68 1.36 0 0 Z " fill="#403A3F" transform="translate(342,456)"/>
<path d="M0 0 C0.66 0 1.32 0 2 0 C2.66 1.98 3.32 3.96 4 6 C2.68 6.33 1.36 6.66 0 7 C0 4.69 0 2.38 0 0 Z " fill="#0D0B0F" transform="translate(351,267)"/>
<path d="M0 0 C0.66 0 1.32 0 2 0 C2.33 0.99 2.66 1.98 3 3 C2.01 4.485 2.01 4.485 1 6 C0.01 5.67 -0.98 5.34 -2 5 C-1.34 3.35 -0.68 1.7 0 0 Z " fill="#242027" transform="translate(161,87)"/>
<path d="M0 0 C3.77545388 1.09068668 6.47043472 1.9083091 9 5 C6.36 4.67 3.72 4.34 1 4 C0.67 2.68 0.34 1.36 0 0 Z " fill="#231F22" transform="translate(362,63)"/>
<path d="M0 0 C0.66 0.33 1.32 0.66 2 1 C0.35 2.65 -1.3 4.3 -3 6 C-3 5.34 -3 4.68 -3 4 C-3.66 3.67 -4.32 3.34 -5 3 C-2.625 1.4375 -2.625 1.4375 0 0 Z " fill="#2F3744" transform="translate(136,33)"/>
<path d="M0 0 C2.31 0.33 4.62 0.66 7 1 C3.5980513 3.09350689 0.94727588 3.17942163 -3 3 C-2.01 2.67 -1.02 2.34 0 2 C0 1.34 0 0.68 0 0 Z " fill="#686B73" transform="translate(307,506)"/>
<path d="M0 0 C-1.15173355 2.46800047 -2.04783565 4.04783565 -4 6 C-4.99 5.67 -5.98 5.34 -7 5 C-2.25 0 -2.25 0 0 0 Z " fill="#1C1113" transform="translate(423,443)"/>
<path d="M0 0 C2.475 0.495 2.475 0.495 5 1 C5.33 2.32 5.66 3.64 6 5 C5.01 5 4.02 5 3 5 C1.3125 2.5 1.3125 2.5 0 0 Z " fill="#5B5B63" transform="translate(58,412)"/>
<path d="M0 0 C0.33 0.99 0.66 1.98 1 3 C-0.65 4.65 -2.3 6.3 -4 8 C-4 4.09161134 -2.49432124 2.88405893 0 0 Z " fill="#362F34" transform="translate(399,346)"/>
<path d="M0 0 C0.99 0.66 1.98 1.32 3 2 C2.75 3.875 2.75 3.875 2 6 C-0.0625 7.25 -0.0625 7.25 -2 8 C-1.34 5.36 -0.68 2.72 0 0 Z " fill="#404552" transform="translate(25,158)"/>
<path d="M0 0 C0.66 1.32 1.32 2.64 2 4 C0.68 4.99 -0.64 5.98 -2 7 C-2.33 6.01 -2.66 5.02 -3 4 C-1.5625 1.8125 -1.5625 1.8125 0 0 Z " fill="#2A272D" transform="translate(95,116)"/>
<path d="M0 0 C0.33 0 0.66 0 1 0 C1.125 2.375 1.125 2.375 1 5 C0.34 5.66 -0.32 6.32 -1 7 C-1.99 6.67 -2.98 6.34 -4 6 C-2.69593116 3.98079663 -1.36176581 1.98075027 0 0 Z " fill="#39404F" transform="translate(55,105)"/>
</svg>
